<mxfile host="app.diagrams.net" modified="2020-10-23T16:46:42.004Z" agent="5.0 (Windows NT 10.0; Win64; x64) AppleWebKit/537.36 (KHTML, like Gecko) Chrome/86.0.4240.111 Safari/537.36" etag="0Jqwe8_HW-0ZP-xT9b9u" version="13.8.1" type="github">
  <diagram id="3y62xVAeNRqI33waL2Ug" name="Page-1">
    <mxGraphModel dx="1038" dy="-589" grid="1" gridSize="10" guides="1" tooltips="1" connect="1" arrows="1" fold="1" page="1" pageScale="1" pageWidth="827" pageHeight="1169" math="0" shadow="0">
      <root>
        <mxCell id="0" />
        <mxCell id="1" parent="0" />
        <UserObject label="saveCampaign" lucidchartObjectId="FheHEQBCdsh4" id="Yva_PYabZO9aCwLN1SX4-1">
          <mxCell style="html=1;whiteSpace=wrap;shape=hexagon;perimeter=hexagonPerimeter2;whiteSpace=wrap;fontSize=11;fontColor=#000000;spacing=3;strokeColor=#5e5e5e;strokeOpacity=100;rounded=1;absoluteArcSize=1;arcSize=7.199999999999999;strokeWidth=2;" vertex="1" zOrder="47" parent="1">
            <mxGeometry x="484" y="1879" width="96" height="72" as="geometry" />
          </mxCell>
        </UserObject>
        <UserObject label="&lt;div style=&quot;text-align: center ; font-size: 10px&quot;&gt;&lt;div&gt;data &amp;amp;&amp;amp; Object.keys(data).length === 0) ||&lt;/div&gt;&lt;div&gt;&amp;nbsp; &amp;nbsp; &amp;nbsp; (data &amp;amp;&amp;amp; data.idUser === undefined) ||&lt;/div&gt;&lt;div&gt;&amp;nbsp; &amp;nbsp; &amp;nbsp; (data &amp;amp;&amp;amp; data.access_token === &#39;&#39;&lt;/div&gt;&lt;/div&gt;" lucidchartObjectId="FheH1cczlGUl" id="Yva_PYabZO9aCwLN1SX4-2">
          <mxCell style="html=1;whiteSpace=wrap;rhombus;whiteSpace=wrap;spacing=3;strokeColor=#5e5e5e;strokeOpacity=100;rounded=1;absoluteArcSize=1;arcSize=7.199999999999999;strokeWidth=2;" vertex="1" zOrder="49" parent="1">
            <mxGeometry x="71" y="1639" width="240" height="159" as="geometry" />
          </mxCell>
        </UserObject>
        <UserObject label="" lucidchartObjectId="FheHM~QLsTXz" id="Yva_PYabZO9aCwLN1SX4-3">
          <mxCell style="html=1;jettySize=18;whiteSpace=wrap;strokeColor=#5E5E5E;rounded=1;arcSize=12;edgeStyle=orthogonalEdgeStyle;startArrow=none;;endArrow=block;endFill=1;;exitX=0.5;exitY=0.9981033385251843;exitPerimeter=0;entryX=0.5;entryY=-0.0027622532971658407;entryPerimeter=0;" edge="1" parent="1" source="Yva_PYabZO9aCwLN1SX4-2" target="Yva_PYabZO9aCwLN1SX4-5">
            <mxGeometry width="100" height="100" relative="1" as="geometry">
              <Array as="points" />
            </mxGeometry>
          </mxCell>
        </UserObject>
        <mxCell id="Yva_PYabZO9aCwLN1SX4-4" value="Sí" style="text;html=1;resizable=0;labelBackgroundColor=#ffffff;align=center;verticalAlign=middle;fontStyle=1;fontColor=#333333;;fontSize=10.666666666666666;" vertex="1" parent="Yva_PYabZO9aCwLN1SX4-3">
          <mxGeometry relative="1" as="geometry" />
        </mxCell>
        <UserObject label="&lt;div style=&quot;text-align: left ; font-size: 10px&quot;&gt;&lt;div&gt;LOGGER(&lt;/div&gt;&lt;div&gt;&amp;nbsp; &amp;nbsp; &amp;nbsp; &amp;nbsp; &#39;ERROR&#39;,&lt;/div&gt;&lt;div&gt;&amp;nbsp; &amp;nbsp; &amp;nbsp; &amp;nbsp; {&lt;/div&gt;&lt;div&gt;&amp;nbsp; &amp;nbsp; &amp;nbsp; &amp;nbsp; &amp;nbsp; pid: process.pid,&lt;/div&gt;&lt;div&gt;&amp;nbsp; &amp;nbsp; &amp;nbsp; &amp;nbsp; &amp;nbsp; hostname: process.env.BACKEND_SERVER,&lt;/div&gt;&lt;div&gt;&amp;nbsp; &amp;nbsp; &amp;nbsp; &amp;nbsp; &amp;nbsp; message: {&lt;/div&gt;&lt;div&gt;&amp;nbsp; &amp;nbsp; &amp;nbsp; &amp;nbsp; &amp;nbsp; &amp;nbsp; ipRemota: publicIp(&lt;/div&gt;&lt;div&gt;&amp;nbsp; &amp;nbsp; &amp;nbsp; &amp;nbsp; &amp;nbsp; &amp;nbsp; &amp;nbsp; req.header(&#39;x-forwarded-for&#39;) || req.connection.remoteAddress&lt;/div&gt;&lt;div&gt;&amp;nbsp; &amp;nbsp; &amp;nbsp; &amp;nbsp; &amp;nbsp; &amp;nbsp; ),&lt;/div&gt;&lt;div&gt;&amp;nbsp; &amp;nbsp; &amp;nbsp; &amp;nbsp; &amp;nbsp; &amp;nbsp; idCliente: data.idCliente,&lt;/div&gt;&lt;div&gt;&amp;nbsp; &amp;nbsp; &amp;nbsp; &amp;nbsp; &amp;nbsp; &amp;nbsp; accion: &#39;Movimientos&#39;,&lt;/div&gt;&lt;div&gt;&amp;nbsp; &amp;nbsp; &amp;nbsp; &amp;nbsp; &amp;nbsp; &amp;nbsp; estatus: &#39;Error&#39;,&lt;/div&gt;&lt;div&gt;&amp;nbsp; &amp;nbsp; &amp;nbsp; &amp;nbsp; &amp;nbsp; &amp;nbsp; recurso: `${config.protocol}//${config.host}/${config.path}:${config.port}`,&lt;/div&gt;&lt;div&gt;&amp;nbsp; &amp;nbsp; &amp;nbsp; &amp;nbsp; &amp;nbsp; &amp;nbsp; fase: config.name === &#39;getMovements&#39; ? &#39;Consulta&#39; : &#39;Descarga&#39;,&lt;/div&gt;&lt;div&gt;&amp;nbsp; &amp;nbsp; &amp;nbsp; &amp;nbsp; &amp;nbsp; &amp;nbsp; descripcion: { error: &#39;ValidationError Need: refreshToken&#39; }&lt;/div&gt;&lt;div&gt;&amp;nbsp; &amp;nbsp; &amp;nbsp; &amp;nbsp; &amp;nbsp; }&lt;/div&gt;&lt;div&gt;&amp;nbsp; &amp;nbsp; &amp;nbsp; &amp;nbsp; },&lt;/div&gt;&lt;div&gt;&amp;nbsp; &amp;nbsp; &amp;nbsp; &amp;nbsp; LOGGER_MOVEMENTS&lt;/div&gt;&lt;div&gt;&amp;nbsp; &amp;nbsp; &amp;nbsp; )&lt;/div&gt;&lt;div&gt;&amp;nbsp; &amp;nbsp; &amp;nbsp; return res.status(500).send({&lt;/div&gt;&lt;div&gt;&amp;nbsp; &amp;nbsp; &amp;nbsp; &amp;nbsp; codigoError: &#39;500&#39;,&lt;/div&gt;&lt;div&gt;&amp;nbsp; &amp;nbsp; &amp;nbsp; &amp;nbsp; descripcionError: &#39;ValidationError Need: idUser, token &#39;&lt;/div&gt;&lt;div&gt;&amp;nbsp; &amp;nbsp; &amp;nbsp; })&lt;/div&gt;&lt;/div&gt;" lucidchartObjectId="FheHXMUjOUy~" id="Yva_PYabZO9aCwLN1SX4-5">
          <mxCell style="html=1;whiteSpace=wrap;shape=process;whiteSpace=wrap;spacing=3;verticalAlign=middle;strokeColor=#5e5e5e;strokeOpacity=100;fillOpacity=100;rounded=1;absoluteArcSize=1;arcSize=7.199999999999999;fillColor=#ffbbb1;strokeWidth=2;" vertex="1" zOrder="51" parent="1">
            <mxGeometry x="10" y="1865" width="363" height="335" as="geometry" />
          </mxCell>
        </UserObject>
        <UserObject label="" lucidchartObjectId="FheHou3gOYjA" id="Yva_PYabZO9aCwLN1SX4-6">
          <mxCell style="html=1;jettySize=18;whiteSpace=wrap;fontSize=10;fontColor=#333333;fontStyle=1;align=center;strokeColor=#5E5E5E;rounded=1;arcSize=12;edgeStyle=orthogonalEdgeStyle;startArrow=none;;endArrow=block;endFill=1;;exitX=0.9960210631841435;exitY=0.5;exitPerimeter=0;entryX=0.0076289198602557855;entryY=0.5;entryPerimeter=0;" edge="1" parent="1" source="Yva_PYabZO9aCwLN1SX4-2" target="Yva_PYabZO9aCwLN1SX4-15">
            <mxGeometry width="100" height="100" relative="1" as="geometry">
              <Array as="points" />
            </mxGeometry>
          </mxCell>
        </UserObject>
        <mxCell id="Yva_PYabZO9aCwLN1SX4-7" value="no" style="text;html=1;resizable=0;labelBackgroundColor=#ffffff;align=center;verticalAlign=middle;fontStyle=1;fontColor=#333333;;fontSize=10.666666666666666;" vertex="1" parent="Yva_PYabZO9aCwLN1SX4-6">
          <mxGeometry relative="1" as="geometry" />
        </mxCell>
        <UserObject label="Exitoso" lucidchartObjectId="FheH5-6BccWg" id="Yva_PYabZO9aCwLN1SX4-8">
          <mxCell style="html=1;whiteSpace=wrap;rhombus;whiteSpace=wrap;fontSize=13;fontColor=#333333;align=center;spacing=3;strokeColor=#5e5e5e;strokeOpacity=100;rounded=1;absoluteArcSize=1;arcSize=7.199999999999999;strokeWidth=2;" vertex="1" zOrder="58" parent="1">
            <mxGeometry x="851" y="1759" width="108" height="96" as="geometry" />
          </mxCell>
        </UserObject>
        <UserObject label="&lt;div style=&quot;text-align: left;&quot;&gt;&lt;span style=&quot;font-size:9px;color:#000000;&quot;&gt; responseJSON.message = &#39;Operacion Exitosa&#39;&#xa;&lt;/span&gt;&lt;/div&gt;&lt;div style=&quot;text-align: left;&quot;&gt;&lt;span style=&quot;font-size:9px;color:#000000;&quot;&gt;        LOGGER(&#xa;&lt;/span&gt;&lt;/div&gt;&lt;div style=&quot;text-align: left;&quot;&gt;&lt;span style=&quot;font-size:9px;color:#000000;&quot;&gt;          &#39;INFO&#39;,&#xa;&lt;/span&gt;&lt;/div&gt;&lt;div style=&quot;text-align: left;&quot;&gt;&lt;span style=&quot;font-size:9px;color:#000000;&quot;&gt;          {&#xa;&lt;/span&gt;&lt;/div&gt;&lt;div style=&quot;text-align: left;&quot;&gt;&lt;span style=&quot;font-size:9px;color:#000000;&quot;&gt;            pid: process.pid,&#xa;&lt;/span&gt;&lt;/div&gt;&lt;div style=&quot;text-align: left;&quot;&gt;&lt;span style=&quot;font-size:9px;color:#000000;&quot;&gt;            hostname: process.env.BACKEND_SERVER,&#xa;&lt;/span&gt;&lt;/div&gt;&lt;div style=&quot;text-align: left;&quot;&gt;&lt;span style=&quot;font-size:9px;color:#000000;&quot;&gt;            message: {&#xa;&lt;/span&gt;&lt;/div&gt;&lt;div style=&quot;text-align: left;&quot;&gt;&lt;span style=&quot;font-size:9px;color:#000000;&quot;&gt;              ipRemota: publicIp(&#xa;&lt;/span&gt;&lt;/div&gt;&lt;div style=&quot;text-align: left;&quot;&gt;&lt;span style=&quot;font-size:9px;color:#000000;&quot;&gt;                req.header(&#39;x-forwarded-for&#39;) || req.connection.remoteAddress&#xa;&lt;/span&gt;&lt;/div&gt;&lt;div style=&quot;text-align: left;&quot;&gt;&lt;span style=&quot;font-size:9px;color:#000000;&quot;&gt;              ),&#xa;&lt;/span&gt;&lt;/div&gt;&lt;div style=&quot;text-align: left;&quot;&gt;&lt;span style=&quot;font-size:9px;color:#000000;&quot;&gt;              idCliente: data.idCliente,&#xa;&lt;/span&gt;&lt;/div&gt;&lt;div style=&quot;text-align: left;&quot;&gt;&lt;span style=&quot;font-size:9px;color:#000000;&quot;&gt;              nombreUsuario: data.idUser,&#xa;&lt;/span&gt;&lt;/div&gt;&lt;div style=&quot;text-align: left;&quot;&gt;&lt;span style=&quot;font-size:9px;color:#000000;&quot;&gt;              idSesion: data.token,&#xa;&lt;/span&gt;&lt;/div&gt;&lt;div style=&quot;text-align: left;&quot;&gt;&lt;span style=&quot;font-size:9px;color:#000000;&quot;&gt;              accion: &#39;Campaña&#39;,&#xa;&lt;/span&gt;&lt;/div&gt;&lt;div style=&quot;text-align: left;&quot;&gt;&lt;span style=&quot;font-size:9px;color:#000000;&quot;&gt;              estatus: &#39;Exitoso&#39;,&#xa;&lt;/span&gt;&lt;/div&gt;&lt;div style=&quot;text-align: left;&quot;&gt;&lt;span style=&quot;font-size:9px;color:#000000;&quot;&gt;              recurso: `${config.port}//${config.host}/${config.host}:${config.port}`,&#xa;&lt;/span&gt;&lt;/div&gt;&lt;div style=&quot;text-align: left;&quot;&gt;&lt;span style=&quot;font-size:9px;color:#000000;&quot;&gt;              fase: config.name,&#xa;&lt;/span&gt;&lt;/div&gt;&lt;div style=&quot;text-align: left;&quot;&gt;&lt;span style=&quot;font-size:9px;color:#000000;&quot;&gt;              descripcion: responseJSON&#xa;&lt;/span&gt;&lt;/div&gt;&lt;div style=&quot;text-align: left;&quot;&gt;&lt;span style=&quot;font-size:9px;color:#000000;&quot;&gt;            }&#xa;&lt;/span&gt;&lt;/div&gt;&lt;div style=&quot;text-align: left;&quot;&gt;&lt;span style=&quot;font-size:9px;color:#000000;&quot;&gt;          },&#xa;&lt;/span&gt;&lt;/div&gt;&lt;div style=&quot;text-align: left;&quot;&gt;&lt;span style=&quot;font-size:9px;color:#000000;&quot;&gt;          LOGGER_CAMPAIGN&#xa;&lt;/span&gt;&lt;/div&gt;&lt;div style=&quot;text-align: left;&quot;&gt;&lt;span style=&quot;font-size:9px;color:#000000;&quot;&gt;        )&#xa;&lt;/span&gt;&lt;/div&gt;&lt;div style=&quot;text-align: left;&quot;&gt;&lt;span style=&quot;font-size:9px;color:#000000;&quot;&gt;        return res.status(200).send(responseJSON)&lt;/span&gt;&lt;/div&gt;" lucidchartObjectId="FheHkomjUrPZ" id="Yva_PYabZO9aCwLN1SX4-9">
          <mxCell style="html=1;whiteSpace=wrap;shape=process;whiteSpace=wrap;spacing=3;verticalAlign=top;strokeColor=#5e5e5e;strokeOpacity=100;fillOpacity=100;rounded=1;absoluteArcSize=1;arcSize=7.199999999999999;fillColor=#c7e8ac;strokeWidth=2;" vertex="1" zOrder="62" parent="1">
            <mxGeometry x="983" y="1330" width="363" height="366" as="geometry" />
          </mxCell>
        </UserObject>
        <UserObject label="&lt;div style=&quot;text-align: left;&quot;&gt;&lt;span style=&quot;font-size:9px;color:#000000;&quot;&gt; LOGGER(&#xa;&lt;/span&gt;&lt;/div&gt;&lt;div style=&quot;text-align: left;&quot;&gt;&lt;span style=&quot;font-size:9px;color:#000000;&quot;&gt;          &#39;ERROR&#39;,&#xa;&lt;/span&gt;&lt;/div&gt;&lt;div style=&quot;text-align: left;&quot;&gt;&lt;span style=&quot;font-size:9px;color:#000000;&quot;&gt;          {&#xa;&lt;/span&gt;&lt;/div&gt;&lt;div style=&quot;text-align: left;&quot;&gt;&lt;span style=&quot;font-size:9px;color:#000000;&quot;&gt;            pid: process.pid,&#xa;&lt;/span&gt;&lt;/div&gt;&lt;div style=&quot;text-align: left;&quot;&gt;&lt;span style=&quot;font-size:9px;color:#000000;&quot;&gt;            hostname: process.env.BACKEND_SERVER,&#xa;&lt;/span&gt;&lt;/div&gt;&lt;div style=&quot;text-align: left;&quot;&gt;&lt;span style=&quot;font-size:9px;color:#000000;&quot;&gt;            message: {&#xa;&lt;/span&gt;&lt;/div&gt;&lt;div style=&quot;text-align: left;&quot;&gt;&lt;span style=&quot;font-size:9px;color:#000000;&quot;&gt;              ipRemota: publicIp(&#xa;&lt;/span&gt;&lt;/div&gt;&lt;div style=&quot;text-align: left;&quot;&gt;&lt;span style=&quot;font-size:9px;color:#000000;&quot;&gt;                req.header(&#39;x-forwarded-for&#39;) || req.connection.remoteAddress&#xa;&lt;/span&gt;&lt;/div&gt;&lt;div style=&quot;text-align: left;&quot;&gt;&lt;span style=&quot;font-size:9px;color:#000000;&quot;&gt;              ),&#xa;&lt;/span&gt;&lt;/div&gt;&lt;div style=&quot;text-align: left;&quot;&gt;&lt;span style=&quot;font-size:9px;color:#000000;&quot;&gt;              idCliente: data.idCliente,&#xa;&lt;/span&gt;&lt;/div&gt;&lt;div style=&quot;text-align: left;&quot;&gt;&lt;span style=&quot;font-size:9px;color:#000000;&quot;&gt;              nombreUsuario: data.idUser,&#xa;&lt;/span&gt;&lt;/div&gt;&lt;div style=&quot;text-align: left;&quot;&gt;&lt;span style=&quot;font-size:9px;color:#000000;&quot;&gt;              idSesion: data.token,&#xa;&lt;/span&gt;&lt;/div&gt;&lt;div style=&quot;text-align: left;&quot;&gt;&lt;span style=&quot;font-size:9px;color:#000000;&quot;&gt;              accion: &#39;Campaña&#39;,&#xa;&lt;/span&gt;&lt;/div&gt;&lt;div style=&quot;text-align: left;&quot;&gt;&lt;span style=&quot;font-size:9px;color:#000000;&quot;&gt;              estatus: &#39;Exitoso&#39;,&#xa;&lt;/span&gt;&lt;/div&gt;&lt;div style=&quot;text-align: left;&quot;&gt;&lt;span style=&quot;font-size:9px;color:#000000;&quot;&gt;              recurso: `${config.protocol}//${config.host}/${config.path}:${config.port}`,&#xa;&lt;/span&gt;&lt;/div&gt;&lt;div style=&quot;text-align: left;&quot;&gt;&lt;span style=&quot;font-size:9px;color:#000000;&quot;&gt;              fase: config.name,&#xa;&lt;/span&gt;&lt;/div&gt;&lt;div style=&quot;text-align: left;&quot;&gt;&lt;span style=&quot;font-size:9px;color:#000000;&quot;&gt;              descripcion: err&#xa;&lt;/span&gt;&lt;/div&gt;&lt;div style=&quot;text-align: left;&quot;&gt;&lt;span style=&quot;font-size:9px;color:#000000;&quot;&gt;            }&#xa;&lt;/span&gt;&lt;/div&gt;&lt;div style=&quot;text-align: left;&quot;&gt;&lt;span style=&quot;font-size:9px;color:#000000;&quot;&gt;          },&#xa;&lt;/span&gt;&lt;/div&gt;&lt;div style=&quot;text-align: left;&quot;&gt;&lt;span style=&quot;font-size:9px;color:#000000;&quot;&gt;          LOGGER_CAMPAIGN&#xa;&lt;/span&gt;&lt;/div&gt;&lt;div style=&quot;text-align: left;&quot;&gt;&lt;span style=&quot;font-size:9px;color:#000000;&quot;&gt;        )&#xa;&lt;/span&gt;&lt;/div&gt;&lt;div style=&quot;text-align: left;&quot;&gt;&lt;span style=&quot;font-size:9px;color:#000000;&quot;&gt;        return res.status(500).send(JSON.parse(err))&#xa;&lt;/span&gt;&lt;/div&gt;&lt;div style=&quot;text-align: left;&quot;&gt;&lt;span style=&quot;font-size:9px;color:#000000;&quot;&gt;      }&lt;/span&gt;&lt;/div&gt;" lucidchartObjectId="FheH_dg~gPG1" id="Yva_PYabZO9aCwLN1SX4-10">
          <mxCell style="html=1;whiteSpace=wrap;shape=process;whiteSpace=wrap;spacing=3;verticalAlign=top;strokeColor=#5e5e5e;strokeOpacity=100;fillOpacity=100;rounded=1;absoluteArcSize=1;arcSize=7.199999999999999;fillColor=#ffbbb1;strokeWidth=2;" vertex="1" zOrder="63" parent="1">
            <mxGeometry x="755" y="2035" width="363" height="339" as="geometry" />
          </mxCell>
        </UserObject>
        <UserObject label="" lucidchartObjectId="FheHOwsUk1Yf" id="Yva_PYabZO9aCwLN1SX4-11">
          <mxCell style="html=1;jettySize=18;whiteSpace=wrap;fontSize=10;fontColor=#333333;fontStyle=1;align=center;strokeColor=#5E5E5E;rounded=1;arcSize=12;edgeStyle=orthogonalEdgeStyle;startArrow=none;;endArrow=block;endFill=1;;exitX=0.5;exitY=0.9944314392214835;exitPerimeter=0;entryX=0.5;entryY=-0.0026532124928405378;entryPerimeter=0;" edge="1" parent="1" source="Yva_PYabZO9aCwLN1SX4-8" target="Yva_PYabZO9aCwLN1SX4-10">
            <mxGeometry width="100" height="100" relative="1" as="geometry">
              <Array as="points" />
            </mxGeometry>
          </mxCell>
        </UserObject>
        <mxCell id="Yva_PYabZO9aCwLN1SX4-12" value="No" style="text;html=1;resizable=0;labelBackgroundColor=#ffffff;align=center;verticalAlign=middle;fontStyle=1;fontColor=#333333;;fontSize=10.666666666666666;" vertex="1" parent="Yva_PYabZO9aCwLN1SX4-11">
          <mxGeometry relative="1" as="geometry" />
        </mxCell>
        <UserObject label="&lt;div style=&quot;text-align: left&quot;&gt;&lt;font style=&quot;font-size: 12px&quot;&gt;Response: Null&lt;/font&gt;&lt;/div&gt;&lt;div style=&quot;text-align: left&quot;&gt;&lt;/div&gt;" lucidchartObjectId="FheHwJTHAw6u" id="Yva_PYabZO9aCwLN1SX4-13">
          <mxCell style="html=1;whiteSpace=wrap;;whiteSpace=wrap;spacing=3;verticalAlign=top;strokeColor=#5e5e5e;strokeOpacity=100;rounded=1;absoluteArcSize=1;arcSize=7.199999999999999;strokeWidth=2;" vertex="1" zOrder="69" parent="1">
            <mxGeometry x="1439" y="1735" width="191" height="35" as="geometry" />
          </mxCell>
        </UserObject>
        <UserObject label="getCampaign" lucidchartObjectId="NafHmFh6Zc9_" id="Yva_PYabZO9aCwLN1SX4-14">
          <mxCell style="html=1;whiteSpace=wrap;shape=hexagon;perimeter=hexagonPerimeter2;whiteSpace=wrap;fontSize=11;fontColor=#000000;spacing=3;strokeColor=#5e5e5e;strokeOpacity=100;rounded=1;absoluteArcSize=1;arcSize=7.199999999999999;strokeWidth=2;" vertex="1" zOrder="83" parent="1">
            <mxGeometry x="481" y="1531" width="96" height="72" as="geometry" />
          </mxCell>
        </UserObject>
        <UserObject label="llamada a endpoint" lucidchartObjectId="2WfH.eukvCqa" id="Yva_PYabZO9aCwLN1SX4-15">
          <mxCell style="html=1;whiteSpace=wrap;rhombus;whiteSpace=wrap;fontSize=13;fontColor=#333333;align=center;spacing=3;strokeColor=#5e5e5e;strokeOpacity=100;rounded=1;absoluteArcSize=1;arcSize=7.199999999999999;strokeWidth=2;" vertex="1" zOrder="84" parent="1">
            <mxGeometry x="481" y="1678" width="103" height="81" as="geometry" />
          </mxCell>
        </UserObject>
        <UserObject label="" lucidchartObjectId="EZfH.cGEjq3c" id="Yva_PYabZO9aCwLN1SX4-16">
          <mxCell style="html=1;jettySize=18;whiteSpace=wrap;fontSize=12;fontColor=#333333;fontStyle=1;align=center;strokeColor=#5E5E5E;rounded=1;arcSize=12;edgeStyle=orthogonalEdgeStyle;startArrow=none;;endArrow=block;endFill=1;;exitX=0.4999999999999644;exitY=0.005403756237344876;exitPerimeter=0;entryX=0.5387500000000343;entryY=1.0125000000000004;entryPerimeter=0;" edge="1" parent="1" source="Yva_PYabZO9aCwLN1SX4-15" target="Yva_PYabZO9aCwLN1SX4-14">
            <mxGeometry width="100" height="100" relative="1" as="geometry">
              <Array as="points" />
            </mxGeometry>
          </mxCell>
        </UserObject>
        <mxCell id="Yva_PYabZO9aCwLN1SX4-17" value="api/getCampaign" style="text;html=1;resizable=0;labelBackgroundColor=#ffffff;align=center;verticalAlign=middle;fontStyle=1;fontColor=#333333;;fontSize=12;" vertex="1" parent="Yva_PYabZO9aCwLN1SX4-16">
          <mxGeometry relative="1" as="geometry" />
        </mxCell>
        <UserObject label="" lucidchartObjectId="HZfHUyaufXkK" id="Yva_PYabZO9aCwLN1SX4-18">
          <mxCell style="html=1;jettySize=18;whiteSpace=wrap;fontSize=12;fontColor=#333333;fontStyle=1;align=center;strokeColor=#5E5E5E;rounded=1;arcSize=12;edgeStyle=orthogonalEdgeStyle;startArrow=none;;endArrow=block;endFill=1;;exitX=0.5;exitY=0.9945962437626595;exitPerimeter=0;entryX=0.5;entryY=-0.012500000000000065;entryPerimeter=0;" edge="1" parent="1" source="Yva_PYabZO9aCwLN1SX4-15" target="Yva_PYabZO9aCwLN1SX4-1">
            <mxGeometry width="100" height="100" relative="1" as="geometry">
              <Array as="points" />
            </mxGeometry>
          </mxCell>
        </UserObject>
        <mxCell id="Yva_PYabZO9aCwLN1SX4-19" value="api/saveCampaign" style="text;html=1;resizable=0;labelBackgroundColor=#ffffff;align=center;verticalAlign=middle;fontStyle=1;fontColor=#333333;;fontSize=12;" vertex="1" parent="Yva_PYabZO9aCwLN1SX4-18">
          <mxGeometry relative="1" as="geometry" />
        </mxCell>
        <mxCell id="Yva_PYabZO9aCwLN1SX4-20" value="" style="group;dropTarget=0;" vertex="1" parent="1">
          <mxGeometry x="433" y="1230" width="237" height="270" as="geometry" />
        </mxCell>
        <UserObject label="&lt;div style=&quot;text-align: left;&quot;&gt;&lt;span style=&quot;font-size:9px;color:#c92d39;font-weight: bold;&quot;&gt;Header&lt;/span&gt;&lt;span style=&quot;font-size:9px;color:#000000;&quot;&gt;&#xa;&lt;/span&gt;&lt;/div&gt;&lt;div style=&quot;text-align: left;&quot;&gt;&lt;span style=&quot;font-size:9px;color:#000000;&quot;&gt; Accept: &#39;application/json&#39;,&#xa;&lt;/span&gt;&lt;/div&gt;&lt;div style=&quot;text-align: left;&quot;&gt;&lt;span style=&quot;font-size:9px;color:#000000;&quot;&gt;&#xa;&lt;/span&gt;&lt;/div&gt;&lt;div style=&quot;text-align: left;&quot;&gt;&lt;span style=&quot;font-size:9px;color:#000000;&quot;&gt;Accept: &#39;application/json&#39;,&#xa;&lt;/span&gt;&lt;/div&gt;&lt;div style=&quot;text-align: left;&quot;&gt;&lt;span style=&quot;font-size:9px;color:#000000;&quot;&gt; &#39;Content-Type&#39;: &#39;application/json;charset=UTF-8&#39;,&#xa;&lt;/span&gt;&lt;/div&gt;&lt;div style=&quot;text-align: left;&quot;&gt;&lt;span style=&quot;font-size:9px;color:#000000;&quot;&gt; idConsumidor: 25,&#xa;&lt;/span&gt;&lt;/div&gt;&lt;div style=&quot;text-align: left;&quot;&gt;&lt;span style=&quot;font-size:9px;color:#000000;&quot;&gt; idDestino: 14,&#xa;&lt;/span&gt;&lt;/div&gt;&lt;div style=&quot;text-align: left;&quot;&gt;&lt;span style=&quot;font-size:9px;color:#000000;&quot;&gt; usuario: gtqxhthfafmldtrmlt@niwghx.online &#xa;&lt;/span&gt;&lt;/div&gt;&lt;div style=&quot;text-align: left;&quot;&gt;&lt;span style=&quot;font-size:9px;color:#000000;&quot;&gt;&#xa;&lt;/span&gt;&lt;/div&gt;&lt;div style=&quot;text-align: left;&quot;&gt;&lt;/div&gt;" lucidchartObjectId="b2fHpSifme5C" id="Yva_PYabZO9aCwLN1SX4-21">
          <mxCell style="html=1;whiteSpace=wrap;;whiteSpace=wrap;spacing=3;verticalAlign=top;strokeColor=#5e5e5e;strokeOpacity=100;fillOpacity=100;rounded=1;absoluteArcSize=1;arcSize=7.199999999999999;fillColor=#e5e5e5;strokeWidth=2;" vertex="1" zOrder="87" parent="Yva_PYabZO9aCwLN1SX4-20">
            <mxGeometry y="67.50000000000001" width="237" height="132.82258064516128" as="geometry" />
          </mxCell>
        </UserObject>
        <UserObject label="&lt;div style=&quot;text-align: left&quot;&gt;&lt;span style=&quot;font-size: 9px ; color: #c92d39 ; font-weight: bold&quot;&gt;Payload&lt;/span&gt;&lt;span style=&quot;font-size: 9px ; color: #000000&quot;&gt;&lt;br&gt;&lt;/span&gt;&lt;/div&gt;&lt;div style=&quot;text-align: left&quot;&gt;&lt;span style=&quot;font-size: 9px ; color: #000000&quot;&gt;{&lt;br&gt;&lt;/span&gt;&lt;/div&gt;&lt;div style=&quot;text-align: left&quot;&gt;&lt;span style=&quot;font-size: 9px ; color: #000000&quot;&gt;   &quot;idCliente&quot;: &quot;1804037884&quot;,&lt;br&gt;&lt;/span&gt;&lt;/div&gt;&lt;div style=&quot;text-align: left&quot;&gt;&lt;span style=&quot;font-size: 9px ; color: #000000&quot;&gt;   &quot;calificacionMidas&quot;:&quot;-1&quot;&lt;br&gt;&lt;/span&gt;&lt;/div&gt;&lt;div style=&quot;text-align: left&quot;&gt;&lt;span style=&quot;font-size: 9px ; color: #000000&quot;&gt;}&lt;br&gt;&lt;/span&gt;&lt;/div&gt;&lt;div style=&quot;text-align: left&quot;&gt;&lt;/div&gt;" lucidchartObjectId="b2fHGq9EwkId" id="Yva_PYabZO9aCwLN1SX4-22">
          <mxCell style="html=1;whiteSpace=wrap;;whiteSpace=wrap;spacing=3;verticalAlign=top;strokeColor=#5e5e5e;strokeOpacity=100;fillOpacity=100;rounded=1;absoluteArcSize=1;arcSize=7.199999999999999;fillColor=#e5e5e5;strokeWidth=2;" vertex="1" zOrder="88" parent="Yva_PYabZO9aCwLN1SX4-20">
            <mxGeometry y="190.52419354838707" width="237" height="79.4758064516129" as="geometry" />
          </mxCell>
        </UserObject>
        <UserObject label="&lt;div style=&quot;text-align: left;&quot;&gt;&lt;span style=&quot;font-size:10px;color:#c92d39;font-weight: bold;&quot;&gt;URL&lt;/span&gt;&lt;span style=&quot;font-size:10px;color:#000000;&quot;&gt;: &lt;/span&gt;&lt;span style=&quot;font-size:11px;color:#000000;&quot;&gt;https://417aa3f7200b4e4ab27e35032757&#xa;&lt;/span&gt;&lt;/div&gt;&lt;div style=&quot;text-align: left;&quot;&gt;&lt;span style=&quot;font-size:11px;color:#000000;&quot;&gt;cadd.us-east-1.aws.found.io:9243/&#xa;&lt;/span&gt;&lt;/div&gt;&lt;div style=&quot;text-align: left;&quot;&gt;&lt;span style=&quot;font-size:11px;color:#000000;&quot;&gt;mm_promociones_dev/_search&lt;/span&gt;&lt;/div&gt;" lucidchartObjectId="b2fHP6a50O9K" id="Yva_PYabZO9aCwLN1SX4-23">
          <mxCell style="html=1;whiteSpace=wrap;;whiteSpace=wrap;spacing=3;verticalAlign=top;strokeColor=#5e5e5e;strokeOpacity=100;fillOpacity=100;rounded=1;absoluteArcSize=1;arcSize=7.199999999999999;fillColor=#e5e5e5;strokeWidth=2;" vertex="1" zOrder="89" parent="Yva_PYabZO9aCwLN1SX4-20">
            <mxGeometry width="237" height="67.50000000000001" as="geometry" />
          </mxCell>
        </UserObject>
        <mxCell id="Yva_PYabZO9aCwLN1SX4-24" value="" style="group;dropTarget=0;" vertex="1" parent="1">
          <mxGeometry x="419" y="1963" width="237" height="597" as="geometry" />
        </mxCell>
        <UserObject label="&lt;div style=&quot;text-align: left;&quot;&gt;&lt;span style=&quot;font-size:10px;color:#c92d39;font-weight: bold;&quot;&gt;Header&lt;/span&gt;&lt;span style=&quot;font-size:10px;color:#000000;&quot;&gt;&#xa;&lt;/span&gt;&lt;/div&gt;&lt;div style=&quot;text-align: left;&quot;&gt;&lt;span style=&quot;font-size:10px;color:#000000;&quot;&gt;&#39;Content-Type&#39;: &#39;application/json&#39; &#xa;&lt;/span&gt;&lt;/div&gt;&lt;div style=&quot;text-align: left;&quot;&gt;&lt;span style=&quot;font-size:10px;color:#000000;&quot;&gt; Authorization: Bearer izFoJ6hiKKJ8eZJYorjFRqpD1JxxZFZV91rem&#xa;&lt;/span&gt;&lt;/div&gt;&lt;div style=&quot;text-align: left;&quot;&gt;&lt;span style=&quot;font-size:10px;color:#000000;&quot;&gt;CZLH2ScsExb8cj6Fm&#xa;&lt;/span&gt;&lt;/div&gt;&lt;div style=&quot;text-align: left;&quot;&gt;&lt;span style=&quot;font-size:10px;color:#000000;&quot;&gt; idConsumidor: 25&#xa;&lt;/span&gt;&lt;/div&gt;&lt;div style=&quot;text-align: left;&quot;&gt;&lt;span style=&quot;font-size:10px;color:#000000;&quot;&gt; idDestino: 100&#xa;&lt;/span&gt;&lt;/div&gt;&lt;div style=&quot;text-align: left;&quot;&gt;&lt;span style=&quot;font-size:10px;color:#000000;&quot;&gt; usuario: gtqxhthfafmldtrmlt@niwghx.online&#xa;&lt;/span&gt;&lt;/div&gt;&lt;div style=&quot;text-align: left;&quot;&gt;&lt;span style=&quot;font-size:10px;color:#000000;&quot;&gt;&#xa;&lt;/span&gt;&lt;/div&gt;&lt;div style=&quot;text-align: left;&quot;&gt;&lt;span style=&quot;font-size:10px;color:#000000;&quot;&gt;&#xa;&lt;/span&gt;&lt;/div&gt;&lt;div style=&quot;text-align: left;&quot;&gt;&lt;/div&gt;" lucidchartObjectId="L7fHxwdAuD0y" id="Yva_PYabZO9aCwLN1SX4-25">
          <mxCell style="html=1;whiteSpace=wrap;;whiteSpace=wrap;spacing=3;verticalAlign=top;strokeColor=#5e5e5e;strokeOpacity=100;fillOpacity=100;rounded=1;absoluteArcSize=1;arcSize=7.199999999999999;fillColor=#e5e5e5;strokeWidth=2;" vertex="1" zOrder="91" parent="Yva_PYabZO9aCwLN1SX4-24">
            <mxGeometry y="72.01167315175098" width="237" height="170.73735408560313" as="geometry" />
          </mxCell>
        </UserObject>
        <UserObject label="&lt;div style=&quot;text-align: left;&quot;&gt;&lt;span style=&quot;font-size:10px;color:#c92d39;font-weight: bold;&quot;&gt;Payload&lt;/span&gt;&lt;span style=&quot;font-size:10px;color:#000000;&quot;&gt;&#xa;&lt;/span&gt;&lt;/div&gt;&lt;div style=&quot;text-align: left;&quot;&gt;&lt;span style=&quot;font-size:10px;color:#000000;&quot;&gt;{&#xa;&lt;/span&gt;&lt;/div&gt;&lt;div style=&quot;text-align: left;&quot;&gt;&lt;span style=&quot;font-size:10px;color:#000000;&quot;&gt;    &quot;cliente&quot;: {&#xa;&lt;/span&gt;&lt;/div&gt;&lt;div style=&quot;text-align: left;&quot;&gt;&lt;span style=&quot;font-size:10px;color:#000000;&quot;&gt;        &quot;idCliente&quot;: 1804037884&#xa;&lt;/span&gt;&lt;/div&gt;&lt;div style=&quot;text-align: left;&quot;&gt;&lt;span style=&quot;font-size:10px;color:#000000;&quot;&gt;    },&#xa;&lt;/span&gt;&lt;/div&gt;&lt;div style=&quot;text-align: left;&quot;&gt;&lt;span style=&quot;font-size:10px;color:#000000;&quot;&gt;    &quot;transaccion&quot;: {&#xa;&lt;/span&gt;&lt;/div&gt;&lt;div style=&quot;text-align: left;&quot;&gt;&lt;span style=&quot;font-size:10px;color:#000000;&quot;&gt;        &quot;estados&quot;: {&#xa;&lt;/span&gt;&lt;/div&gt;&lt;div style=&quot;text-align: left;&quot;&gt;&lt;span style=&quot;font-size:10px;color:#000000;&quot;&gt;            &quot;estado&quot;: [&#xa;&lt;/span&gt;&lt;/div&gt;&lt;div style=&quot;text-align: left;&quot;&gt;&lt;span style=&quot;font-size:10px;color:#000000;&quot;&gt;                &quot;EN_PROCESO_DE_PAGO&quot;,&#xa;&lt;/span&gt;&lt;/div&gt;&lt;div style=&quot;text-align: left;&quot;&gt;&lt;span style=&quot;font-size:10px;color:#000000;&quot;&gt;                &quot;PAGADO&quot;,&#xa;&lt;/span&gt;&lt;/div&gt;&lt;div style=&quot;text-align: left;&quot;&gt;&lt;span style=&quot;font-size:10px;color:#000000;&quot;&gt;                &quot;CANCELADO&quot;&#xa;&lt;/span&gt;&lt;/div&gt;&lt;div style=&quot;text-align: left;&quot;&gt;&lt;span style=&quot;font-size:10px;color:#000000;&quot;&gt;            ],&#xa;&lt;/span&gt;&lt;/div&gt;&lt;div style=&quot;text-align: left;&quot;&gt;&lt;span style=&quot;font-size:10px;color:#000000;&quot;&gt;            &quot;tipoLista&quot;: &quot;BLANCA&quot;&#xa;&lt;/span&gt;&lt;/div&gt;&lt;div style=&quot;text-align: left;&quot;&gt;&lt;span style=&quot;font-size:10px;color:#000000;&quot;&gt;        },&#xa;&lt;/span&gt;&lt;/div&gt;&lt;div style=&quot;text-align: left;&quot;&gt;&lt;span style=&quot;font-size:10px;color:#000000;&quot;&gt;        &quot;operaciones&quot;: {&#xa;&lt;/span&gt;&lt;/div&gt;&lt;div style=&quot;text-align: left;&quot;&gt;&lt;span style=&quot;font-size:10px;color:#000000;&quot;&gt;            &quot;operacion&quot;: [&#xa;&lt;/span&gt;&lt;/div&gt;&lt;div style=&quot;text-align: left;&quot;&gt;&lt;span style=&quot;font-size:10px;color:#000000;&quot;&gt;                8,&#xa;&lt;/span&gt;&lt;/div&gt;&lt;div style=&quot;text-align: left;&quot;&gt;&lt;span style=&quot;font-size:10px;color:#000000;&quot;&gt;                116,&#xa;&lt;/span&gt;&lt;/div&gt;&lt;div style=&quot;text-align: left;&quot;&gt;&lt;span style=&quot;font-size:10px;color:#000000;&quot;&gt;                148,&#xa;&lt;/span&gt;&lt;/div&gt;&lt;div style=&quot;text-align: left;&quot;&gt;&lt;span style=&quot;font-size:10px;color:#000000;&quot;&gt;                191&#xa;&lt;/span&gt;&lt;/div&gt;&lt;div style=&quot;text-align: left;&quot;&gt;&lt;span style=&quot;font-size:10px;color:#000000;&quot;&gt;            ],&#xa;&lt;/span&gt;&lt;/div&gt;&lt;div style=&quot;text-align: left;&quot;&gt;&lt;span style=&quot;font-size:10px;color:#000000;&quot;&gt;            &quot;tipoLista&quot;: &quot;BLANCA&quot;&#xa;&lt;/span&gt;&lt;/div&gt;&lt;div style=&quot;text-align: left;&quot;&gt;&lt;span style=&quot;font-size:10px;color:#000000;&quot;&gt;        }&#xa;&lt;/span&gt;&lt;/div&gt;&lt;div style=&quot;text-align: left;&quot;&gt;&lt;span style=&quot;font-size:10px;color:#000000;&quot;&gt;    }&#xa;&lt;/span&gt;&lt;/div&gt;&lt;div style=&quot;text-align: left;&quot;&gt;&lt;span style=&quot;font-size:10px;color:#000000;&quot;&gt;}&#xa;&lt;/span&gt;&lt;/div&gt;&lt;div style=&quot;text-align: left;&quot;&gt;&lt;/div&gt;" lucidchartObjectId="L7fHcG3YZx9E" id="Yva_PYabZO9aCwLN1SX4-26">
          <mxCell style="html=1;whiteSpace=wrap;;whiteSpace=wrap;spacing=3;verticalAlign=top;strokeColor=#5e5e5e;strokeOpacity=100;fillOpacity=100;rounded=1;absoluteArcSize=1;arcSize=7.199999999999999;fillColor=#e5e5e5;strokeWidth=2;" vertex="1" zOrder="92" parent="Yva_PYabZO9aCwLN1SX4-24">
            <mxGeometry y="203.25875486381324" width="237" height="393.7412451361868" as="geometry" />
          </mxCell>
        </UserObject>
        <UserObject label="&lt;div style=&quot;text-align: left;&quot;&gt;&lt;span style=&quot;font-size:10px;color:#c92d39;font-weight: bold;&quot;&gt;URL&lt;/span&gt;&lt;span style=&quot;font-size:10px;color:#000000;&quot;&gt;: &lt;/span&gt;&lt;span style=&quot;font-size:11px;color:#000000;&quot;&gt;https://417aa3f7200b4e4ab27e35032757&#xa;&lt;/span&gt;&lt;/div&gt;&lt;div style=&quot;text-align: left;&quot;&gt;&lt;span style=&quot;font-size:11px;color:#000000;&quot;&gt;cadd.us-east-1.aws.found.io:9243/&#xa;&lt;/span&gt;&lt;/div&gt;&lt;div style=&quot;text-align: left;&quot;&gt;&lt;span style=&quot;font-size:11px;color:#000000;&quot;&gt;mm_promociones_dev/_doc&lt;/span&gt;&lt;/div&gt;" lucidchartObjectId="L7fHMCa3U-JB" id="Yva_PYabZO9aCwLN1SX4-27">
          <mxCell style="html=1;whiteSpace=wrap;;whiteSpace=wrap;spacing=3;verticalAlign=top;strokeColor=#5e5e5e;strokeOpacity=100;fillOpacity=100;rounded=1;absoluteArcSize=1;arcSize=7.199999999999999;fillColor=#e5e5e5;strokeWidth=2;" vertex="1" zOrder="93" parent="Yva_PYabZO9aCwLN1SX4-24">
            <mxGeometry width="237" height="72.01167315175098" as="geometry" />
          </mxCell>
        </UserObject>
        <UserObject label="" lucidchartObjectId="a-fHOj-8eRLB" id="Yva_PYabZO9aCwLN1SX4-28">
          <mxCell style="html=1;jettySize=18;whiteSpace=wrap;fontSize=11;strokeColor=#5E5E5E;rounded=1;arcSize=12;edgeStyle=orthogonalEdgeStyle;startArrow=none;;endArrow=block;endFill=1;;exitX=0.9987516805433211;exitY=0.5000000000000002;exitPerimeter=0;entryX=0.00608572220582049;entryY=0.49999999999999983;entryPerimeter=0;" edge="1" parent="1" source="Yva_PYabZO9aCwLN1SX4-1" target="Yva_PYabZO9aCwLN1SX4-8">
            <mxGeometry width="100" height="100" relative="1" as="geometry">
              <Array as="points" />
            </mxGeometry>
          </mxCell>
        </UserObject>
        <UserObject label="" lucidchartObjectId="f-fHMxQSjTW5" id="Yva_PYabZO9aCwLN1SX4-29">
          <mxCell style="html=1;jettySize=18;whiteSpace=wrap;fontSize=11;strokeColor=#5E5E5E;rounded=1;arcSize=12;edgeStyle=orthogonalEdgeStyle;startArrow=none;;endArrow=block;endFill=1;;exitX=0.9987516805433211;exitY=0.5000000000000002;exitPerimeter=0;entryX=0.5;entryY=0.005568560778516039;entryPerimeter=0;" edge="1" parent="1" source="Yva_PYabZO9aCwLN1SX4-14" target="Yva_PYabZO9aCwLN1SX4-8">
            <mxGeometry width="100" height="100" relative="1" as="geometry">
              <Array as="points" />
            </mxGeometry>
          </mxCell>
        </UserObject>
        <UserObject label="" lucidchartObjectId="D-fH3PVmAfwG" id="Yva_PYabZO9aCwLN1SX4-30">
          <mxCell style="html=1;jettySize=18;whiteSpace=wrap;fontSize=10;fontColor=#333333;fontStyle=1;align=center;strokeColor=#5E5E5E;rounded=1;arcSize=12;edgeStyle=orthogonalEdgeStyle;startArrow=none;;endArrow=block;endFill=1;;exitX=0.9939142777941795;exitY=0.49999999999999983;exitPerimeter=0;entryX=0.5000000000000002;entryY=1.0028019919053555;entryPerimeter=0;" edge="1" parent="1" source="Yva_PYabZO9aCwLN1SX4-8" target="Yva_PYabZO9aCwLN1SX4-9">
            <mxGeometry width="100" height="100" relative="1" as="geometry">
              <Array as="points" />
            </mxGeometry>
          </mxCell>
        </UserObject>
        <mxCell id="Yva_PYabZO9aCwLN1SX4-31" value="Sí" style="text;html=1;resizable=0;labelBackgroundColor=#ffffff;align=center;verticalAlign=middle;fontStyle=1;fontColor=#333333;;fontSize=10.666666666666666;" vertex="1" parent="Yva_PYabZO9aCwLN1SX4-30">
          <mxGeometry relative="1" as="geometry" />
        </mxCell>
        <UserObject label="" lucidchartObjectId="sjgHjhCAznvE" id="Yva_PYabZO9aCwLN1SX4-32">
          <mxCell style="html=1;jettySize=18;whiteSpace=wrap;fontSize=11;strokeColor=#5E5E5E;rounded=1;arcSize=12;edgeStyle=orthogonalEdgeStyle;startArrow=none;;endArrow=block;endFill=1;;exitX=1.0024795003253937;exitY=0.49999999993937955;exitPerimeter=0;entryX=0.5;entryY=-0.009375;entryPerimeter=0;" edge="1" parent="1" source="Yva_PYabZO9aCwLN1SX4-9" target="Yva_PYabZO9aCwLN1SX4-13">
            <mxGeometry width="100" height="100" relative="1" as="geometry">
              <Array as="points" />
            </mxGeometry>
          </mxCell>
        </UserObject>
        <UserObject label="downloadTicket&lt;br&gt;Movements" lucidchartObjectId="FheHEQBCdsh4" id="Yva_PYabZO9aCwLN1SX4-33">
          <mxCell style="html=1;whiteSpace=wrap;shape=hexagon;perimeter=hexagonPerimeter2;whiteSpace=wrap;fontSize=11;fontColor=#000000;spacing=3;strokeColor=#5e5e5e;strokeOpacity=100;rounded=1;absoluteArcSize=1;arcSize=7.199999999999999;strokeWidth=2;" vertex="1" zOrder="47" parent="1">
            <mxGeometry x="486.5" y="3619" width="96" height="72" as="geometry" />
          </mxCell>
        </UserObject>
        <UserObject label="&lt;div style=&quot;text-align: center;&quot;&gt;&lt;span style=&quot;font-size:11px;color:#333333;&quot;&gt;data &amp;&amp; keys(data).length === 0) ||&#xa;&lt;/span&gt;&lt;/div&gt;&lt;div style=&quot;text-align: center;&quot;&gt;&lt;span style=&quot;font-size:11px;color:#333333;&quot;&gt;      (data &amp;&amp; data.idUser === undefined) ||&#xa;&lt;/span&gt;&lt;/div&gt;&lt;div style=&quot;text-align: center;&quot;&gt;&lt;span style=&quot;font-size:11px;color:#333333;&quot;&gt;      (data &amp;&amp; data.access_token === &#39;&quot;)&#39;&lt;/span&gt;&lt;/div&gt;" lucidchartObjectId="FheH1cczlGUl" id="Yva_PYabZO9aCwLN1SX4-34">
          <mxCell style="html=1;whiteSpace=wrap;rhombus;whiteSpace=wrap;spacing=3;strokeColor=#5e5e5e;strokeOpacity=100;rounded=1;absoluteArcSize=1;arcSize=7.199999999999999;strokeWidth=2;" vertex="1" zOrder="49" parent="1">
            <mxGeometry x="73.5" y="3379" width="240" height="159" as="geometry" />
          </mxCell>
        </UserObject>
        <UserObject label="" lucidchartObjectId="FheHM~QLsTXz" id="Yva_PYabZO9aCwLN1SX4-35">
          <mxCell style="html=1;jettySize=18;whiteSpace=wrap;strokeColor=#5E5E5E;rounded=1;arcSize=12;edgeStyle=orthogonalEdgeStyle;startArrow=none;;endArrow=block;endFill=1;;exitX=0.5;exitY=0.9981033385251843;exitPerimeter=0;entryX=0.5;entryY=0;entryDx=0;entryDy=0;" edge="1" parent="1" source="Yva_PYabZO9aCwLN1SX4-34" target="Yva_PYabZO9aCwLN1SX4-59">
            <mxGeometry width="100" height="100" relative="1" as="geometry">
              <Array as="points" />
              <mxPoint x="224.5" y="3610" as="targetPoint" />
            </mxGeometry>
          </mxCell>
        </UserObject>
        <mxCell id="Yva_PYabZO9aCwLN1SX4-36" value="Sí" style="text;html=1;resizable=0;labelBackgroundColor=#ffffff;align=center;verticalAlign=middle;fontStyle=1;fontColor=#333333;;fontSize=10.666666666666666;" vertex="1" parent="Yva_PYabZO9aCwLN1SX4-35">
          <mxGeometry relative="1" as="geometry" />
        </mxCell>
        <UserObject label="" lucidchartObjectId="FheHou3gOYjA" id="Yva_PYabZO9aCwLN1SX4-37">
          <mxCell style="html=1;jettySize=18;whiteSpace=wrap;fontSize=10;fontColor=#333333;fontStyle=1;align=center;strokeColor=#5E5E5E;rounded=1;arcSize=12;edgeStyle=orthogonalEdgeStyle;startArrow=none;;endArrow=block;endFill=1;;exitX=0.9960210631841435;exitY=0.5;exitPerimeter=0;entryX=0.0076289198602557855;entryY=0.5;entryPerimeter=0;" edge="1" parent="1" source="Yva_PYabZO9aCwLN1SX4-34" target="Yva_PYabZO9aCwLN1SX4-46">
            <mxGeometry width="100" height="100" relative="1" as="geometry">
              <Array as="points" />
            </mxGeometry>
          </mxCell>
        </UserObject>
        <mxCell id="Yva_PYabZO9aCwLN1SX4-38" value="no" style="text;html=1;resizable=0;labelBackgroundColor=#ffffff;align=center;verticalAlign=middle;fontStyle=1;fontColor=#333333;;fontSize=10.666666666666666;" vertex="1" parent="Yva_PYabZO9aCwLN1SX4-37">
          <mxGeometry relative="1" as="geometry" />
        </mxCell>
        <UserObject label="Exitoso" lucidchartObjectId="FheH5-6BccWg" id="Yva_PYabZO9aCwLN1SX4-39">
          <mxCell style="html=1;whiteSpace=wrap;rhombus;whiteSpace=wrap;fontSize=13;fontColor=#333333;align=center;spacing=3;strokeColor=#5e5e5e;strokeOpacity=100;rounded=1;absoluteArcSize=1;arcSize=7.199999999999999;strokeWidth=2;" vertex="1" zOrder="58" parent="1">
            <mxGeometry x="853.5" y="3499" width="108" height="96" as="geometry" />
          </mxCell>
        </UserObject>
        <mxCell id="Yva_PYabZO9aCwLN1SX4-40" style="edgeStyle=orthogonalEdgeStyle;rounded=0;orthogonalLoop=1;jettySize=auto;html=1;exitX=1;exitY=0.5;exitDx=0;exitDy=0;entryX=0.5;entryY=0;entryDx=0;entryDy=0;" edge="1" parent="1" source="Yva_PYabZO9aCwLN1SX4-41" target="Yva_PYabZO9aCwLN1SX4-65">
          <mxGeometry relative="1" as="geometry" />
        </mxCell>
        <UserObject label="&lt;div&gt;&lt;div&gt;LOGGER(&lt;/div&gt;&lt;div&gt;&amp;nbsp; &amp;nbsp; &amp;nbsp; &amp;nbsp; &amp;nbsp; &#39;INFO&#39;,&lt;/div&gt;&lt;div&gt;&amp;nbsp; &amp;nbsp; &amp;nbsp; &amp;nbsp; &amp;nbsp; {&lt;/div&gt;&lt;div&gt;&amp;nbsp; &amp;nbsp; &amp;nbsp; &amp;nbsp; &amp;nbsp; &amp;nbsp; pid: process.pid,&lt;/div&gt;&lt;div&gt;&amp;nbsp; &amp;nbsp; &amp;nbsp; &amp;nbsp; &amp;nbsp; &amp;nbsp; hostname: process.env.BACKEND_SERVER,&lt;/div&gt;&lt;div&gt;&amp;nbsp; &amp;nbsp; &amp;nbsp; &amp;nbsp; &amp;nbsp; &amp;nbsp; message: {&lt;/div&gt;&lt;div&gt;&amp;nbsp; &amp;nbsp; &amp;nbsp; &amp;nbsp; &amp;nbsp; &amp;nbsp; &amp;nbsp; ipRemota: publicIp(&lt;/div&gt;&lt;div&gt;&amp;nbsp; &amp;nbsp; &amp;nbsp; &amp;nbsp; &amp;nbsp; &amp;nbsp; &amp;nbsp; &amp;nbsp; req.header(&#39;x-forwarded-for&#39;) || req.connection.remoteAddress&lt;/div&gt;&lt;div&gt;&amp;nbsp; &amp;nbsp; &amp;nbsp; &amp;nbsp; &amp;nbsp; &amp;nbsp; &amp;nbsp; ),&lt;/div&gt;&lt;div&gt;&amp;nbsp; &amp;nbsp; &amp;nbsp; &amp;nbsp; &amp;nbsp; &amp;nbsp; &amp;nbsp; idCliente: userId,&lt;/div&gt;&lt;div&gt;&amp;nbsp; &amp;nbsp; &amp;nbsp; &amp;nbsp; &amp;nbsp; &amp;nbsp; &amp;nbsp; accion: &#39;Movimientos&#39;,&lt;/div&gt;&lt;div&gt;&amp;nbsp; &amp;nbsp; &amp;nbsp; &amp;nbsp; &amp;nbsp; &amp;nbsp; &amp;nbsp; estatus: &#39;Exitoso&#39;,&lt;/div&gt;&lt;div&gt;&amp;nbsp; &amp;nbsp; &amp;nbsp; &amp;nbsp; &amp;nbsp; &amp;nbsp; &amp;nbsp; recurso: `${config.protocol}//${config.host}/${config.path}:${config.port}`,&lt;/div&gt;&lt;div&gt;&amp;nbsp; &amp;nbsp; &amp;nbsp; &amp;nbsp; &amp;nbsp; &amp;nbsp; &amp;nbsp; fase: config.name === &#39;getMovements&#39; ? &#39;Consulta&#39; : &#39;Descarga&#39;,&lt;/div&gt;&lt;div&gt;&amp;nbsp; &amp;nbsp; &amp;nbsp; &amp;nbsp; &amp;nbsp; &amp;nbsp; &amp;nbsp; descripcion: responseJSON&lt;/div&gt;&lt;div&gt;&amp;nbsp; &amp;nbsp; &amp;nbsp; &amp;nbsp; &amp;nbsp; &amp;nbsp; }&lt;/div&gt;&lt;div&gt;&amp;nbsp; &amp;nbsp; &amp;nbsp; &amp;nbsp; &amp;nbsp; },&lt;/div&gt;&lt;div&gt;&amp;nbsp; &amp;nbsp; &amp;nbsp; &amp;nbsp; &amp;nbsp; LOGGER_MOVEMENTS&lt;/div&gt;&lt;div&gt;&amp;nbsp; &amp;nbsp; &amp;nbsp; &amp;nbsp; )&lt;/div&gt;&lt;/div&gt;" lucidchartObjectId="FheHkomjUrPZ" id="Yva_PYabZO9aCwLN1SX4-41">
          <mxCell style="html=1;whiteSpace=wrap;shape=process;whiteSpace=wrap;spacing=3;verticalAlign=top;strokeColor=#5e5e5e;strokeOpacity=100;fillOpacity=100;rounded=1;absoluteArcSize=1;arcSize=7.199999999999999;fillColor=#c7e8ac;strokeWidth=2;align=left;" vertex="1" zOrder="62" parent="1">
            <mxGeometry x="985.5" y="3070" width="438" height="370" as="geometry" />
          </mxCell>
        </UserObject>
        <UserObject label="&lt;div style=&quot;text-align: left&quot;&gt;&lt;div&gt;LOGGER(&lt;/div&gt;&lt;div&gt;&amp;nbsp; &amp;nbsp; &amp;nbsp; &amp;nbsp; &amp;nbsp; &#39;ERROR&#39;,&lt;/div&gt;&lt;div&gt;&amp;nbsp; &amp;nbsp; &amp;nbsp; &amp;nbsp; &amp;nbsp; {&lt;/div&gt;&lt;div&gt;&amp;nbsp; &amp;nbsp; &amp;nbsp; &amp;nbsp; &amp;nbsp; &amp;nbsp; pid: process.pid,&lt;/div&gt;&lt;div&gt;&amp;nbsp; &amp;nbsp; &amp;nbsp; &amp;nbsp; &amp;nbsp; &amp;nbsp; hostname: process.env.BACKEND_SERVER,&lt;/div&gt;&lt;div&gt;&amp;nbsp; &amp;nbsp; &amp;nbsp; &amp;nbsp; &amp;nbsp; &amp;nbsp; message: {&lt;/div&gt;&lt;div&gt;&amp;nbsp; &amp;nbsp; &amp;nbsp; &amp;nbsp; &amp;nbsp; &amp;nbsp; &amp;nbsp; ipRemota: publicIp(&lt;/div&gt;&lt;div&gt;&amp;nbsp; &amp;nbsp; &amp;nbsp; &amp;nbsp; &amp;nbsp; &amp;nbsp; &amp;nbsp; &amp;nbsp; req.header(&#39;x-forwarded-for&#39;) || req.connection.remoteAddress&lt;/div&gt;&lt;div&gt;&amp;nbsp; &amp;nbsp; &amp;nbsp; &amp;nbsp; &amp;nbsp; &amp;nbsp; &amp;nbsp; ),&lt;/div&gt;&lt;div&gt;&amp;nbsp; &amp;nbsp; &amp;nbsp; &amp;nbsp; &amp;nbsp; &amp;nbsp; &amp;nbsp; idCliente: userId,&lt;/div&gt;&lt;div&gt;&amp;nbsp; &amp;nbsp; &amp;nbsp; &amp;nbsp; &amp;nbsp; &amp;nbsp; &amp;nbsp; accion: &#39;Movimientos&#39;,&lt;/div&gt;&lt;div&gt;&amp;nbsp; &amp;nbsp; &amp;nbsp; &amp;nbsp; &amp;nbsp; &amp;nbsp; &amp;nbsp; estatus: &#39;Error&#39;,&lt;/div&gt;&lt;div&gt;&amp;nbsp; &amp;nbsp; &amp;nbsp; &amp;nbsp; &amp;nbsp; &amp;nbsp; &amp;nbsp; recurso: `${config.protocol}//${config.host}/${config.path}:${config.port}`,&lt;/div&gt;&lt;div&gt;&amp;nbsp; &amp;nbsp; &amp;nbsp; &amp;nbsp; &amp;nbsp; &amp;nbsp; &amp;nbsp; fase: config.name === &#39;getMovements&#39; ? &#39;Consulta&#39; : &#39;Descarga&#39;,&lt;/div&gt;&lt;div&gt;&amp;nbsp; &amp;nbsp; &amp;nbsp; &amp;nbsp; &amp;nbsp; &amp;nbsp; &amp;nbsp; descripcion: err&lt;/div&gt;&lt;div&gt;&amp;nbsp; &amp;nbsp; &amp;nbsp; &amp;nbsp; &amp;nbsp; &amp;nbsp; }&lt;/div&gt;&lt;div&gt;&amp;nbsp; &amp;nbsp; &amp;nbsp; &amp;nbsp; &amp;nbsp; },&lt;/div&gt;&lt;div&gt;&amp;nbsp; &amp;nbsp; &amp;nbsp; &amp;nbsp; &amp;nbsp; LOGGER_MOVEMENTS&lt;/div&gt;&lt;div&gt;&amp;nbsp; &amp;nbsp; &amp;nbsp; &amp;nbsp; )&lt;/div&gt;&lt;/div&gt;" lucidchartObjectId="FheH_dg~gPG1" id="Yva_PYabZO9aCwLN1SX4-42">
          <mxCell style="html=1;whiteSpace=wrap;shape=process;whiteSpace=wrap;spacing=3;verticalAlign=top;strokeColor=#5e5e5e;strokeOpacity=100;fillOpacity=100;rounded=1;absoluteArcSize=1;arcSize=7.199999999999999;fillColor=#ffbbb1;strokeWidth=2;" vertex="1" zOrder="63" parent="1">
            <mxGeometry x="757.5" y="3775" width="436" height="335" as="geometry" />
          </mxCell>
        </UserObject>
        <UserObject label="" lucidchartObjectId="FheHOwsUk1Yf" id="Yva_PYabZO9aCwLN1SX4-43">
          <mxCell style="html=1;jettySize=18;whiteSpace=wrap;fontSize=10;fontColor=#333333;fontStyle=1;align=center;strokeColor=#5E5E5E;rounded=1;arcSize=12;edgeStyle=orthogonalEdgeStyle;startArrow=none;;endArrow=block;endFill=1;;exitX=0.5;exitY=0.9944314392214835;exitPerimeter=0;entryX=0.5;entryY=-0.0026532124928405378;entryPerimeter=0;" edge="1" parent="1" source="Yva_PYabZO9aCwLN1SX4-39" target="Yva_PYabZO9aCwLN1SX4-42">
            <mxGeometry width="100" height="100" relative="1" as="geometry">
              <Array as="points" />
            </mxGeometry>
          </mxCell>
        </UserObject>
        <mxCell id="Yva_PYabZO9aCwLN1SX4-44" value="No" style="text;html=1;resizable=0;labelBackgroundColor=#ffffff;align=center;verticalAlign=middle;fontStyle=1;fontColor=#333333;;fontSize=10.666666666666666;" vertex="1" parent="Yva_PYabZO9aCwLN1SX4-43">
          <mxGeometry relative="1" as="geometry" />
        </mxCell>
        <UserObject label="getMovements" lucidchartObjectId="NafHmFh6Zc9_" id="Yva_PYabZO9aCwLN1SX4-45">
          <mxCell style="html=1;whiteSpace=wrap;shape=hexagon;perimeter=hexagonPerimeter2;whiteSpace=wrap;fontSize=11;fontColor=#000000;spacing=3;strokeColor=#5e5e5e;strokeOpacity=100;rounded=1;absoluteArcSize=1;arcSize=7.199999999999999;strokeWidth=2;" vertex="1" zOrder="83" parent="1">
            <mxGeometry x="483.5" y="3271" width="96" height="72" as="geometry" />
          </mxCell>
        </UserObject>
        <UserObject label="llamada a endpoint" lucidchartObjectId="2WfH.eukvCqa" id="Yva_PYabZO9aCwLN1SX4-46">
          <mxCell style="html=1;whiteSpace=wrap;rhombus;whiteSpace=wrap;fontSize=13;fontColor=#333333;align=center;spacing=3;strokeColor=#5e5e5e;strokeOpacity=100;rounded=1;absoluteArcSize=1;arcSize=7.199999999999999;strokeWidth=2;" vertex="1" zOrder="84" parent="1">
            <mxGeometry x="483.5" y="3418" width="103" height="81" as="geometry" />
          </mxCell>
        </UserObject>
        <UserObject label="" lucidchartObjectId="EZfH.cGEjq3c" id="Yva_PYabZO9aCwLN1SX4-47">
          <mxCell style="html=1;jettySize=18;whiteSpace=wrap;fontSize=12;fontColor=#333333;fontStyle=1;align=center;strokeColor=#5E5E5E;rounded=1;arcSize=12;edgeStyle=orthogonalEdgeStyle;startArrow=none;;endArrow=block;endFill=1;;exitX=0.4999999999999644;exitY=0.005403756237344876;exitPerimeter=0;entryX=0.5387500000000343;entryY=1.0125000000000004;entryPerimeter=0;" edge="1" parent="1" source="Yva_PYabZO9aCwLN1SX4-46" target="Yva_PYabZO9aCwLN1SX4-45">
            <mxGeometry width="100" height="100" relative="1" as="geometry">
              <Array as="points" />
            </mxGeometry>
          </mxCell>
        </UserObject>
        <mxCell id="Yva_PYabZO9aCwLN1SX4-48" value="api/getMovements" style="text;html=1;resizable=0;labelBackgroundColor=#ffffff;align=center;verticalAlign=middle;fontStyle=1;fontColor=#333333;;fontSize=12;" vertex="1" parent="Yva_PYabZO9aCwLN1SX4-47">
          <mxGeometry relative="1" as="geometry" />
        </mxCell>
        <UserObject label="" lucidchartObjectId="HZfHUyaufXkK" id="Yva_PYabZO9aCwLN1SX4-49">
          <mxCell style="html=1;jettySize=18;whiteSpace=wrap;fontSize=12;fontColor=#333333;fontStyle=1;align=center;strokeColor=#5E5E5E;rounded=1;arcSize=12;edgeStyle=orthogonalEdgeStyle;startArrow=none;;endArrow=block;endFill=1;;exitX=0.5;exitY=0.9945962437626595;exitPerimeter=0;entryX=0.5;entryY=-0.012500000000000065;entryPerimeter=0;" edge="1" parent="1" source="Yva_PYabZO9aCwLN1SX4-46" target="Yva_PYabZO9aCwLN1SX4-33">
            <mxGeometry width="100" height="100" relative="1" as="geometry">
              <Array as="points" />
            </mxGeometry>
          </mxCell>
        </UserObject>
        <mxCell id="Yva_PYabZO9aCwLN1SX4-50" value="api/downloadTicketMovements" style="text;html=1;resizable=0;labelBackgroundColor=#ffffff;align=center;verticalAlign=middle;fontStyle=1;fontColor=#333333;;fontSize=12;" vertex="1" parent="Yva_PYabZO9aCwLN1SX4-49">
          <mxGeometry relative="1" as="geometry" />
        </mxCell>
        <mxCell id="Yva_PYabZO9aCwLN1SX4-51" value="" style="group;dropTarget=0;" vertex="1" parent="1">
          <mxGeometry x="419" y="2710" width="277" height="590" as="geometry" />
        </mxCell>
        <UserObject label="&lt;div style=&quot;text-align: left&quot;&gt;&lt;span style=&quot;color: rgb(201 , 45 , 57) ; font-weight: bold&quot;&gt;&lt;font style=&quot;font-size: 12px&quot;&gt;Header&lt;/font&gt;&lt;/span&gt;&lt;span style=&quot;font-size: 9px ; color: #000000&quot;&gt;&lt;br&gt;&lt;/span&gt;&lt;/div&gt;&lt;div style=&quot;text-align: left&quot;&gt;&#39;Content-Type&#39;: &#39;application/json&#39;&amp;nbsp;&lt;/div&gt;&lt;div style=&quot;text-align: left&quot;&gt;&amp;nbsp;Authorization: Bearer izFoJ6hiKKJ8eZJYorjFRqpD1JxxZFZV9&lt;/div&gt;&lt;div style=&quot;text-align: left&quot;&gt;1remCZLH2ScsExb8cj6Fm&lt;/div&gt;&lt;div style=&quot;text-align: left&quot;&gt;&amp;nbsp;idConsumidor: 25&lt;/div&gt;&lt;div style=&quot;text-align: left&quot;&gt;&amp;nbsp;idDestino: 100&lt;/div&gt;&lt;div style=&quot;text-align: left&quot;&gt;&amp;nbsp;usuario: gtqxhthfafmldtrmlt@niwghx.online&lt;/div&gt;&lt;div style=&quot;text-align: left&quot;&gt;&lt;span style=&quot;font-size: 9px&quot;&gt;&amp;nbsp;&lt;/span&gt;&lt;br&gt;&lt;/div&gt;&lt;div style=&quot;text-align: left&quot;&gt;&lt;span style=&quot;font-size: 9px ; color: #000000&quot;&gt;&lt;br&gt;&lt;/span&gt;&lt;/div&gt;&lt;div style=&quot;text-align: left&quot;&gt;&lt;/div&gt;" lucidchartObjectId="b2fHpSifme5C" id="Yva_PYabZO9aCwLN1SX4-52">
          <mxCell style="html=1;whiteSpace=wrap;;whiteSpace=wrap;spacing=3;verticalAlign=top;strokeColor=#5e5e5e;strokeOpacity=100;fillOpacity=100;rounded=1;absoluteArcSize=1;arcSize=7.199999999999999;fillColor=#e5e5e5;strokeWidth=2;" vertex="1" zOrder="87" parent="Yva_PYabZO9aCwLN1SX4-51">
            <mxGeometry y="67.50000000000001" width="277" height="132.82258064516128" as="geometry" />
          </mxCell>
        </UserObject>
        <UserObject label="&lt;div style=&quot;text-align: left&quot;&gt;&lt;span style=&quot;font-size: 9px ; color: #c92d39 ; font-weight: bold&quot;&gt;Payload&lt;/span&gt;&lt;span style=&quot;font-size: 9px ; color: #000000&quot;&gt;&lt;br&gt;&lt;/span&gt;&lt;/div&gt;&lt;div style=&quot;text-align: left&quot;&gt;&lt;div&gt;{&lt;/div&gt;&lt;div&gt;&amp;nbsp; &amp;nbsp; &quot;cliente&quot;: {&lt;/div&gt;&lt;div&gt;&amp;nbsp; &amp;nbsp; &amp;nbsp; &amp;nbsp; &quot;idCliente&quot;: 1804037884&lt;/div&gt;&lt;div&gt;&amp;nbsp; &amp;nbsp; },&lt;/div&gt;&lt;div&gt;&amp;nbsp; &amp;nbsp; &quot;transaccion&quot;: {&lt;/div&gt;&lt;div&gt;&amp;nbsp; &amp;nbsp; &amp;nbsp; &amp;nbsp; &quot;estados&quot;: {&lt;/div&gt;&lt;div&gt;&amp;nbsp; &amp;nbsp; &amp;nbsp; &amp;nbsp; &amp;nbsp; &amp;nbsp; &quot;estado&quot;: [&lt;/div&gt;&lt;div&gt;&amp;nbsp; &amp;nbsp; &amp;nbsp; &amp;nbsp; &amp;nbsp; &amp;nbsp; &amp;nbsp; &amp;nbsp; &quot;EN_PROCESO_DE_PAGO&quot;,&lt;/div&gt;&lt;div&gt;&amp;nbsp; &amp;nbsp; &amp;nbsp; &amp;nbsp; &amp;nbsp; &amp;nbsp; &amp;nbsp; &amp;nbsp; &quot;PAGADO&quot;,&lt;/div&gt;&lt;div&gt;&amp;nbsp; &amp;nbsp; &amp;nbsp; &amp;nbsp; &amp;nbsp; &amp;nbsp; &amp;nbsp; &amp;nbsp; &quot;CANCELADO&quot;&lt;/div&gt;&lt;div&gt;&amp;nbsp; &amp;nbsp; &amp;nbsp; &amp;nbsp; &amp;nbsp; &amp;nbsp; ],&lt;/div&gt;&lt;div&gt;&amp;nbsp; &amp;nbsp; &amp;nbsp; &amp;nbsp; &amp;nbsp; &amp;nbsp; &quot;tipoLista&quot;: &quot;BLANCA&quot;&lt;/div&gt;&lt;div&gt;&amp;nbsp; &amp;nbsp; &amp;nbsp; &amp;nbsp; },&lt;/div&gt;&lt;div&gt;&amp;nbsp; &amp;nbsp; &amp;nbsp; &amp;nbsp; &quot;operaciones&quot;: {&lt;/div&gt;&lt;div&gt;&amp;nbsp; &amp;nbsp; &amp;nbsp; &amp;nbsp; &amp;nbsp; &amp;nbsp; &quot;operacion&quot;: [&lt;/div&gt;&lt;div&gt;&amp;nbsp; &amp;nbsp; &amp;nbsp; &amp;nbsp; &amp;nbsp; &amp;nbsp; &amp;nbsp; &amp;nbsp; 8,&lt;/div&gt;&lt;div&gt;&amp;nbsp; &amp;nbsp; &amp;nbsp; &amp;nbsp; &amp;nbsp; &amp;nbsp; &amp;nbsp; &amp;nbsp; 116,&lt;/div&gt;&lt;div&gt;&amp;nbsp; &amp;nbsp; &amp;nbsp; &amp;nbsp; &amp;nbsp; &amp;nbsp; &amp;nbsp; &amp;nbsp; 148,&lt;/div&gt;&lt;div&gt;&amp;nbsp; &amp;nbsp; &amp;nbsp; &amp;nbsp; &amp;nbsp; &amp;nbsp; &amp;nbsp; &amp;nbsp; 191&lt;/div&gt;&lt;div&gt;&amp;nbsp; &amp;nbsp; &amp;nbsp; &amp;nbsp; &amp;nbsp; &amp;nbsp; ],&lt;/div&gt;&lt;div&gt;&amp;nbsp; &amp;nbsp; &amp;nbsp; &amp;nbsp; &amp;nbsp; &amp;nbsp; &quot;tipoLista&quot;: &quot;BLANCA&quot;&lt;/div&gt;&lt;div&gt;&amp;nbsp; &amp;nbsp; &amp;nbsp; &amp;nbsp; }&lt;/div&gt;&lt;div&gt;&amp;nbsp; &amp;nbsp; }&lt;/div&gt;&lt;div&gt;}&lt;/div&gt;&lt;div&gt;&lt;br&gt;&lt;/div&gt;&lt;/div&gt;&lt;div style=&quot;text-align: left&quot;&gt;&lt;/div&gt;" lucidchartObjectId="b2fHGq9EwkId" id="Yva_PYabZO9aCwLN1SX4-53">
          <mxCell style="html=1;whiteSpace=wrap;;whiteSpace=wrap;spacing=3;verticalAlign=top;strokeColor=#5e5e5e;strokeOpacity=100;fillOpacity=100;rounded=1;absoluteArcSize=1;arcSize=7.199999999999999;fillColor=#e5e5e5;strokeWidth=2;" vertex="1" zOrder="88" parent="Yva_PYabZO9aCwLN1SX4-51">
            <mxGeometry y="190" width="277" height="359.48" as="geometry" />
          </mxCell>
        </UserObject>
        <UserObject label="&lt;div style=&quot;text-align: left&quot;&gt;&lt;span style=&quot;font-size: 10px ; color: #c92d39 ; font-weight: bold&quot;&gt;URL&lt;/span&gt;&lt;span style=&quot;font-size: 10px ; color: #000000&quot;&gt;:&amp;nbsp;&lt;/span&gt;&lt;span&gt;https://iamdr.montepiedad.com.mx:4444/&lt;/span&gt;&lt;/div&gt;&lt;div style=&quot;text-align: left&quot;&gt;&lt;span&gt;NMP/OperacionPrendaria/OperacionesEnLinea/&lt;/span&gt;&lt;/div&gt;&lt;div style=&quot;text-align: left&quot;&gt;&lt;span&gt;Transaccion.svc/v1/Movimientos/&lt;/span&gt;&lt;/div&gt;&lt;div style=&quot;text-align: left&quot;&gt;Detalle&lt;/div&gt;&lt;div&gt;&lt;br&gt;&lt;/div&gt;" lucidchartObjectId="b2fHP6a50O9K" id="Yva_PYabZO9aCwLN1SX4-54">
          <mxCell style="html=1;whiteSpace=wrap;;whiteSpace=wrap;spacing=3;verticalAlign=top;strokeColor=#5e5e5e;strokeOpacity=100;fillOpacity=100;rounded=1;absoluteArcSize=1;arcSize=7.199999999999999;fillColor=#e5e5e5;strokeWidth=2;" vertex="1" zOrder="89" parent="Yva_PYabZO9aCwLN1SX4-51">
            <mxGeometry width="277" height="67.50000000000001" as="geometry" />
          </mxCell>
        </UserObject>
        <UserObject label="" lucidchartObjectId="a-fHOj-8eRLB" id="Yva_PYabZO9aCwLN1SX4-55">
          <mxCell style="html=1;jettySize=18;whiteSpace=wrap;fontSize=11;strokeColor=#5E5E5E;rounded=1;arcSize=12;edgeStyle=orthogonalEdgeStyle;startArrow=none;;endArrow=block;endFill=1;;exitX=0.9987516805433211;exitY=0.5000000000000002;exitPerimeter=0;entryX=0.00608572220582049;entryY=0.49999999999999983;entryPerimeter=0;" edge="1" parent="1" source="Yva_PYabZO9aCwLN1SX4-33" target="Yva_PYabZO9aCwLN1SX4-39">
            <mxGeometry width="100" height="100" relative="1" as="geometry">
              <Array as="points" />
            </mxGeometry>
          </mxCell>
        </UserObject>
        <UserObject label="" lucidchartObjectId="f-fHMxQSjTW5" id="Yva_PYabZO9aCwLN1SX4-56">
          <mxCell style="html=1;jettySize=18;whiteSpace=wrap;fontSize=11;strokeColor=#5E5E5E;rounded=1;arcSize=12;edgeStyle=orthogonalEdgeStyle;startArrow=none;;endArrow=block;endFill=1;;exitX=0.9987516805433211;exitY=0.5000000000000002;exitPerimeter=0;entryX=0.5;entryY=0.005568560778516039;entryPerimeter=0;" edge="1" parent="1" source="Yva_PYabZO9aCwLN1SX4-45" target="Yva_PYabZO9aCwLN1SX4-39">
            <mxGeometry width="100" height="100" relative="1" as="geometry">
              <Array as="points" />
            </mxGeometry>
          </mxCell>
        </UserObject>
        <UserObject label="" lucidchartObjectId="D-fH3PVmAfwG" id="Yva_PYabZO9aCwLN1SX4-57">
          <mxCell style="html=1;jettySize=18;whiteSpace=wrap;fontSize=10;fontColor=#333333;fontStyle=1;align=center;strokeColor=#5E5E5E;rounded=1;arcSize=12;edgeStyle=orthogonalEdgeStyle;startArrow=none;;endArrow=block;endFill=1;;exitX=0.9939142777941795;exitY=0.49999999999999983;exitPerimeter=0;entryX=0.5000000000000002;entryY=1.0028019919053555;entryPerimeter=0;" edge="1" parent="1" source="Yva_PYabZO9aCwLN1SX4-39" target="Yva_PYabZO9aCwLN1SX4-41">
            <mxGeometry width="100" height="100" relative="1" as="geometry">
              <Array as="points" />
            </mxGeometry>
          </mxCell>
        </UserObject>
        <mxCell id="Yva_PYabZO9aCwLN1SX4-58" value="Sí" style="text;html=1;resizable=0;labelBackgroundColor=#ffffff;align=center;verticalAlign=middle;fontStyle=1;fontColor=#333333;;fontSize=10.666666666666666;" vertex="1" parent="Yva_PYabZO9aCwLN1SX4-57">
          <mxGeometry relative="1" as="geometry" />
        </mxCell>
        <UserObject label="&lt;div style=&quot;text-align: left;&quot;&gt;&lt;span style=&quot;font-size:9px;color:#000000;&quot;&gt;LOGGER(&#xa;&lt;/span&gt;&lt;/div&gt;&lt;div style=&quot;text-align: left;&quot;&gt;&lt;span style=&quot;font-size:9px;color:#000000;&quot;&gt;        &#39;ERROR&#39;,&#xa;&lt;/span&gt;&lt;/div&gt;&lt;div style=&quot;text-align: left;&quot;&gt;&lt;span style=&quot;font-size:9px;color:#000000;&quot;&gt;        {&#xa;&lt;/span&gt;&lt;/div&gt;&lt;div style=&quot;text-align: left;&quot;&gt;&lt;span style=&quot;font-size:9px;color:#000000;&quot;&gt;          pid: process.pid,&#xa;&lt;/span&gt;&lt;/div&gt;&lt;div style=&quot;text-align: left;&quot;&gt;&lt;span style=&quot;font-size:9px;color:#000000;&quot;&gt;          hostname: process.env.BACKEND_SERVER,&#xa;&lt;/span&gt;&lt;/div&gt;&lt;div style=&quot;text-align: left;&quot;&gt;&lt;span style=&quot;font-size:9px;color:#000000;&quot;&gt;          message: {&#xa;&lt;/span&gt;&lt;/div&gt;&lt;div style=&quot;text-align: left;&quot;&gt;&lt;span style=&quot;font-size:9px;color:#000000;&quot;&gt;            ipRemota: publicIp(&#xa;&lt;/span&gt;&lt;/div&gt;&lt;div style=&quot;text-align: left;&quot;&gt;&lt;span style=&quot;font-size:9px;color:#000000;&quot;&gt;              req.header(&#39;x-forwarded-for&#39;) || req.connection.remoteAddress&#xa;&lt;/span&gt;&lt;/div&gt;&lt;div style=&quot;text-align: left;&quot;&gt;&lt;span style=&quot;font-size:9px;color:#000000;&quot;&gt;            ),&#xa;&lt;/span&gt;&lt;/div&gt;&lt;div style=&quot;text-align: left;&quot;&gt;&lt;span style=&quot;font-size:9px;color:#000000;&quot;&gt;            accion: &#39;Campaña&#39;,&#xa;&lt;/span&gt;&lt;/div&gt;&lt;div style=&quot;text-align: left;&quot;&gt;&lt;span style=&quot;font-size:9px;color:#000000;&quot;&gt;            estatus: &#39;Error&#39;,&#xa;&lt;/span&gt;&lt;/div&gt;&lt;div style=&quot;text-align: left;&quot;&gt;&lt;span style=&quot;font-size:9px;color:#000000;&quot;&gt;            recurso: `${config.port}//${config.host}/${config.host}:${config.port}`,&#xa;&lt;/span&gt;&lt;/div&gt;&lt;div style=&quot;text-align: left;&quot;&gt;&lt;span style=&quot;font-size:9px;color:#000000;&quot;&gt;            fase: config.name,&#xa;&lt;/span&gt;&lt;/div&gt;&lt;div style=&quot;text-align: left;&quot;&gt;&lt;span style=&quot;font-size:9px;color:#000000;&quot;&gt;            descripcion: &#39;ValidationError Need: idUser, token &#39;&#xa;&lt;/span&gt;&lt;/div&gt;&lt;div style=&quot;text-align: left;&quot;&gt;&lt;span style=&quot;font-size:9px;color:#000000;&quot;&gt;          }&#xa;&lt;/span&gt;&lt;/div&gt;&lt;div style=&quot;text-align: left;&quot;&gt;&lt;span style=&quot;font-size:9px;color:#000000;&quot;&gt;        },&#xa;&lt;/span&gt;&lt;/div&gt;&lt;div style=&quot;text-align: left;&quot;&gt;&lt;span style=&quot;font-size:9px;color:#000000;&quot;&gt;        LOGGER_CAMPAIGN&#xa;&lt;/span&gt;&lt;/div&gt;&lt;div style=&quot;text-align: left;&quot;&gt;&lt;span style=&quot;font-size:9px;color:#000000;&quot;&gt;      )&#xa;&lt;/span&gt;&lt;/div&gt;&lt;div style=&quot;text-align: left;&quot;&gt;&lt;span style=&quot;font-size:9px;color:#000000;&quot;&gt;      return res.status(500).send({&#xa;&lt;/span&gt;&lt;/div&gt;&lt;div style=&quot;text-align: left;&quot;&gt;&lt;span style=&quot;font-size:9px;color:#000000;&quot;&gt;        codigoError: &#39;500&#39;,&#xa;&lt;/span&gt;&lt;/div&gt;&lt;div style=&quot;text-align: left;&quot;&gt;&lt;span style=&quot;font-size:9px;color:#000000;&quot;&gt;        descripcionError: &#39;ValidationError Need:  idUser, token &#39;&#xa;&lt;/span&gt;&lt;/div&gt;&lt;div style=&quot;text-align: left;&quot;&gt;&lt;span style=&quot;font-size:9px;color:#000000;&quot;&gt;      })&lt;/span&gt;&lt;/div&gt;" lucidchartObjectId="FheHXMUjOUy~" id="Yva_PYabZO9aCwLN1SX4-59">
          <mxCell style="html=1;whiteSpace=wrap;shape=process;whiteSpace=wrap;spacing=3;verticalAlign=middle;strokeColor=#5e5e5e;strokeOpacity=100;fillOpacity=100;rounded=1;absoluteArcSize=1;arcSize=7.199999999999999;fillColor=#ffbbb1;strokeWidth=2;" vertex="1" zOrder="51" parent="1">
            <mxGeometry x="30" y="3630" width="363" height="326" as="geometry" />
          </mxCell>
        </UserObject>
        <mxCell id="Yva_PYabZO9aCwLN1SX4-60" value="" style="group" vertex="1" connectable="0" parent="1">
          <mxGeometry x="433" y="3700" width="237" height="467" as="geometry" />
        </mxCell>
        <mxCell id="Yva_PYabZO9aCwLN1SX4-61" value="" style="group;dropTarget=0;" vertex="1" parent="Yva_PYabZO9aCwLN1SX4-60">
          <mxGeometry width="237" height="467" as="geometry" />
        </mxCell>
        <UserObject label="&lt;div style=&quot;text-align: left&quot;&gt;&lt;span style=&quot;font-size: 10px ; color: #c92d39 ; font-weight: bold&quot;&gt;Header&lt;/span&gt;&lt;span style=&quot;font-size: 10px ; color: #000000&quot;&gt;&lt;br&gt;&lt;/span&gt;&lt;/div&gt;&lt;div style=&quot;text-align: left&quot;&gt;&lt;span style=&quot;font-size: 10px ; color: #000000&quot;&gt;&#39;&lt;/span&gt;&lt;span&gt;&amp;nbsp; &#39;Content-Type&#39;: &#39;application/json&#39;&amp;nbsp;&lt;/span&gt;&lt;/div&gt;&lt;div style=&quot;text-align: left&quot;&gt;&amp;nbsp;Authorization: Bearer izFoJ6hiKKJ8eZJYorjFRqpD1JxxZFZV91&lt;/div&gt;&lt;div style=&quot;text-align: left&quot;&gt;remCZLH2ScsExb8cj6Fm&lt;/div&gt;&lt;div style=&quot;text-align: left&quot;&gt;&amp;nbsp;idConsumidor: 25&lt;/div&gt;&lt;div style=&quot;text-align: left&quot;&gt;&amp;nbsp;idDestino: 100&lt;/div&gt;&lt;div style=&quot;text-align: left&quot;&gt;&amp;nbsp;usuario: gtqxhthfafmldtrmlt@niwghx.online&lt;/div&gt;&lt;div&gt;&lt;br&gt;&lt;/div&gt;&lt;div style=&quot;text-align: left&quot;&gt;&lt;span style=&quot;font-size: 10px ; color: #000000&quot;&gt;&lt;br&gt;&lt;/span&gt;&lt;/div&gt;&lt;div style=&quot;text-align: left&quot;&gt;&lt;span style=&quot;font-size: 10px ; color: #000000&quot;&gt;&lt;br&gt;&lt;/span&gt;&lt;/div&gt;&lt;div style=&quot;text-align: left&quot;&gt;&lt;/div&gt;" lucidchartObjectId="L7fHxwdAuD0y" id="Yva_PYabZO9aCwLN1SX4-62">
          <mxCell style="html=1;whiteSpace=wrap;;whiteSpace=wrap;spacing=3;verticalAlign=top;strokeColor=#5e5e5e;strokeOpacity=100;fillOpacity=100;rounded=1;absoluteArcSize=1;arcSize=7.199999999999999;fillColor=#e5e5e5;strokeWidth=2;" vertex="1" zOrder="91" parent="Yva_PYabZO9aCwLN1SX4-61">
            <mxGeometry y="70.0007392996109" width="237" height="133.5583657587549" as="geometry" />
          </mxCell>
        </UserObject>
        <UserObject label="&lt;div style=&quot;text-align: left&quot;&gt;&lt;span style=&quot;font-size: 10px ; color: #c92d39 ; font-weight: bold&quot;&gt;Payload&lt;/span&gt;&lt;span style=&quot;font-size: 10px ; color: #000000&quot;&gt;&lt;br&gt;&lt;/span&gt;&lt;/div&gt;&lt;div&gt;&lt;div style=&quot;text-align: left&quot;&gt;{&lt;/div&gt;&lt;div style=&quot;text-align: left&quot;&gt;&amp;nbsp; &amp;nbsp; &quot;partidas&quot;: {&lt;/div&gt;&lt;div style=&quot;text-align: left&quot;&gt;&amp;nbsp; &amp;nbsp; &amp;nbsp; &quot;partida&quot;: [&lt;/div&gt;&lt;div style=&quot;text-align: left&quot;&gt;&amp;nbsp; &amp;nbsp; &amp;nbsp; &amp;nbsp; &amp;nbsp; &amp;nbsp; {&lt;/div&gt;&lt;div style=&quot;text-align: left&quot;&gt;&amp;nbsp; &amp;nbsp; &amp;nbsp; &amp;nbsp; &amp;nbsp; &quot;prenda&quot;: {&lt;/div&gt;&lt;div style=&quot;text-align: left&quot;&gt;&amp;nbsp; &amp;nbsp; &amp;nbsp; &amp;nbsp; &amp;nbsp; &amp;nbsp; &quot;folio&quot;:&quot;&quot;&lt;/div&gt;&lt;div style=&quot;text-align: left&quot;&gt;&amp;nbsp; &amp;nbsp; &amp;nbsp; &amp;nbsp; &amp;nbsp; &amp;nbsp; &amp;nbsp; &amp;nbsp; }&lt;/div&gt;&lt;div style=&quot;text-align: left&quot;&gt;&amp;nbsp; &amp;nbsp; &amp;nbsp; &amp;nbsp; &amp;nbsp; &amp;nbsp; }&lt;/div&gt;&lt;div style=&quot;text-align: left&quot;&gt;&amp;nbsp; &amp;nbsp; &amp;nbsp; &amp;nbsp; ]&lt;/div&gt;&lt;div style=&quot;text-align: left&quot;&gt;&amp;nbsp; &amp;nbsp; },&lt;/div&gt;&lt;div style=&quot;text-align: left&quot;&gt;&amp;nbsp; &amp;nbsp; &quot;transaccion&quot;: {&lt;/div&gt;&lt;div style=&quot;text-align: left&quot;&gt;&amp;nbsp; &amp;nbsp; &amp;nbsp; &quot;idTransaccion&quot;:&quot;&quot;,&lt;/div&gt;&lt;div style=&quot;text-align: left&quot;&gt;&amp;nbsp; &amp;nbsp; &amp;nbsp; &quot;idOperacion&quot;:&quot;&quot;&lt;/div&gt;&lt;div style=&quot;text-align: left&quot;&gt;&amp;nbsp; &amp;nbsp; }&lt;/div&gt;&lt;div style=&quot;text-align: left&quot;&gt;}&lt;/div&gt;&lt;div style=&quot;text-align: left&quot;&gt;&lt;br&gt;&lt;/div&gt;&lt;/div&gt;&lt;div style=&quot;text-align: left&quot;&gt;&lt;/div&gt;" lucidchartObjectId="L7fHcG3YZx9E" id="Yva_PYabZO9aCwLN1SX4-63">
          <mxCell style="html=1;whiteSpace=wrap;;whiteSpace=wrap;spacing=3;verticalAlign=top;strokeColor=#5e5e5e;strokeOpacity=100;fillOpacity=100;rounded=1;absoluteArcSize=1;arcSize=7.199999999999999;fillColor=#e5e5e5;strokeWidth=2;" vertex="1" zOrder="92" parent="Yva_PYabZO9aCwLN1SX4-61">
            <mxGeometry y="189.8924384787472" width="237" height="259.3469351230425" as="geometry" />
          </mxCell>
        </UserObject>
        <UserObject label="&lt;div style=&quot;text-align: left&quot;&gt;&lt;span style=&quot;font-size: 10px ; color: #c92d39 ; font-weight: bold&quot;&gt;URL&lt;/span&gt;&lt;span style=&quot;font-size: 10px ; color: #000000&quot;&gt;:&amp;nbsp;&lt;/span&gt;&lt;/div&gt;&lt;div style=&quot;text-align: left&quot;&gt;&lt;span style=&quot;font-size: 11px&quot;&gt;https://iamdr.montepiedad.com.mx:4444/NMP/&lt;/span&gt;&lt;/div&gt;&lt;div style=&quot;text-align: left&quot;&gt;&lt;span style=&quot;font-size: 11px&quot;&gt;OperacionPrendaria/OperacionesEnLinea/&lt;/span&gt;&lt;/div&gt;&lt;div style=&quot;text-align: left&quot;&gt;&lt;span style=&quot;font-size: 11px&quot;&gt;Transaccion.svc/v1/Recibos/Detalle&lt;/span&gt;&lt;/div&gt;" lucidchartObjectId="L7fHMCa3U-JB" id="Yva_PYabZO9aCwLN1SX4-64">
          <mxCell style="html=1;whiteSpace=wrap;;whiteSpace=wrap;spacing=3;verticalAlign=top;strokeColor=#5e5e5e;strokeOpacity=100;fillOpacity=100;rounded=1;absoluteArcSize=1;arcSize=7.199999999999999;fillColor=#e5e5e5;strokeWidth=2;" vertex="1" zOrder="93" parent="Yva_PYabZO9aCwLN1SX4-60">
            <mxGeometry width="237" height="70" as="geometry" />
          </mxCell>
        </UserObject>
        <UserObject label="&lt;font style=&quot;font-size: 12px&quot;&gt;Response:&amp;nbsp;&lt;br&gt;&quot;Se necesita los folios y tansaccion para poder obtener la respuesta correcta&quot;&lt;br&gt;&lt;/font&gt;" lucidchartObjectId="FheHwJTHAw6u" id="Yva_PYabZO9aCwLN1SX4-65">
          <mxCell style="html=1;whiteSpace=wrap;;whiteSpace=wrap;spacing=3;verticalAlign=top;strokeColor=#5e5e5e;strokeOpacity=100;rounded=1;absoluteArcSize=1;arcSize=7.199999999999999;strokeWidth=2;" vertex="1" zOrder="69" parent="1">
            <mxGeometry x="1550" y="3379" width="240" height="71" as="geometry" />
          </mxCell>
        </UserObject>
        <UserObject label="&lt;font style=&quot;font-size: 12px&quot;&gt;getPromotions&lt;/font&gt;" lucidchartObjectId="FheHEQBCdsh4" id="Yva_PYabZO9aCwLN1SX4-66">
          <mxCell style="html=1;whiteSpace=wrap;shape=hexagon;perimeter=hexagonPerimeter2;whiteSpace=wrap;fontSize=11;fontColor=#000000;spacing=3;strokeColor=#5e5e5e;strokeOpacity=100;rounded=1;absoluteArcSize=1;arcSize=7.199999999999999;strokeWidth=2;" vertex="1" zOrder="47" parent="1">
            <mxGeometry x="580" y="5160" width="96" height="72" as="geometry" />
          </mxCell>
        </UserObject>
        <UserObject label="&lt;div style=&quot;text-align: center&quot;&gt;&lt;div&gt;data &amp;amp;&amp;amp; Object.keys(data).length === 0) ||&lt;/div&gt;&lt;div&gt;&amp;nbsp; &amp;nbsp; &amp;nbsp; (data &amp;amp;&amp;amp; data.idUser === undefined) ||&lt;/div&gt;&lt;div&gt;&amp;nbsp; &amp;nbsp; &amp;nbsp; (data &amp;amp;&amp;amp; data.access_token === &#39;&#39;&lt;/div&gt;&lt;/div&gt;" lucidchartObjectId="FheH1cczlGUl" id="Yva_PYabZO9aCwLN1SX4-67">
          <mxCell style="html=1;whiteSpace=wrap;rhombus;whiteSpace=wrap;spacing=3;strokeColor=#5e5e5e;strokeOpacity=100;rounded=1;absoluteArcSize=1;arcSize=7.199999999999999;strokeWidth=2;" vertex="1" zOrder="49" parent="1">
            <mxGeometry x="90" y="4830" width="283.5" height="218" as="geometry" />
          </mxCell>
        </UserObject>
        <UserObject label="" lucidchartObjectId="FheHM~QLsTXz" id="Yva_PYabZO9aCwLN1SX4-68">
          <mxCell style="html=1;jettySize=18;whiteSpace=wrap;strokeColor=#5E5E5E;rounded=1;arcSize=12;edgeStyle=orthogonalEdgeStyle;startArrow=none;;endArrow=block;endFill=1;;exitX=0.5;exitY=0.9981033385251843;exitPerimeter=0;entryX=0.5;entryY=0;entryDx=0;entryDy=0;" edge="1" parent="1" source="Yva_PYabZO9aCwLN1SX4-67" target="Yva_PYabZO9aCwLN1SX4-91">
            <mxGeometry width="100" height="100" relative="1" as="geometry">
              <Array as="points" />
              <mxPoint x="284.5" y="5120" as="targetPoint" />
            </mxGeometry>
          </mxCell>
        </UserObject>
        <mxCell id="Yva_PYabZO9aCwLN1SX4-69" value="Sí" style="text;html=1;resizable=0;labelBackgroundColor=#ffffff;align=center;verticalAlign=middle;fontStyle=1;fontColor=#333333;;fontSize=10.666666666666666;" vertex="1" parent="Yva_PYabZO9aCwLN1SX4-68">
          <mxGeometry relative="1" as="geometry" />
        </mxCell>
        <UserObject label="" lucidchartObjectId="FheHou3gOYjA" id="Yva_PYabZO9aCwLN1SX4-70">
          <mxCell style="html=1;jettySize=18;whiteSpace=wrap;fontSize=10;fontColor=#333333;fontStyle=1;align=center;strokeColor=#5E5E5E;rounded=1;arcSize=12;edgeStyle=orthogonalEdgeStyle;startArrow=none;;endArrow=block;endFill=1;;exitX=0.9960210631841435;exitY=0.5;exitPerimeter=0;entryX=0;entryY=0.5;entryDx=0;entryDy=0;" edge="1" parent="1" source="Yva_PYabZO9aCwLN1SX4-67" target="Yva_PYabZO9aCwLN1SX4-98">
            <mxGeometry width="100" height="100" relative="1" as="geometry">
              <Array as="points" />
              <mxPoint x="544.2857787456066" y="4968.5" as="targetPoint" />
            </mxGeometry>
          </mxCell>
        </UserObject>
        <mxCell id="Yva_PYabZO9aCwLN1SX4-71" value="no" style="text;html=1;resizable=0;labelBackgroundColor=#ffffff;align=center;verticalAlign=middle;fontStyle=1;fontColor=#333333;;fontSize=10.666666666666666;" vertex="1" parent="Yva_PYabZO9aCwLN1SX4-70">
          <mxGeometry relative="1" as="geometry" />
        </mxCell>
        <UserObject label="Exitoso" lucidchartObjectId="FheH5-6BccWg" id="Yva_PYabZO9aCwLN1SX4-72">
          <mxCell style="html=1;whiteSpace=wrap;rhombus;whiteSpace=wrap;fontSize=13;fontColor=#333333;align=center;spacing=3;strokeColor=#5e5e5e;strokeOpacity=100;rounded=1;absoluteArcSize=1;arcSize=7.199999999999999;strokeWidth=2;" vertex="1" zOrder="58" parent="1">
            <mxGeometry x="913.5" y="5009" width="108" height="96" as="geometry" />
          </mxCell>
        </UserObject>
        <mxCell id="Yva_PYabZO9aCwLN1SX4-73" style="edgeStyle=orthogonalEdgeStyle;rounded=0;orthogonalLoop=1;jettySize=auto;html=1;exitX=1;exitY=0.5;exitDx=0;exitDy=0;entryX=0.5;entryY=0;entryDx=0;entryDy=0;" edge="1" parent="1" source="Yva_PYabZO9aCwLN1SX4-74" target="Yva_PYabZO9aCwLN1SX4-97">
          <mxGeometry relative="1" as="geometry" />
        </mxCell>
        <UserObject label="&lt;div&gt;&lt;div&gt;LOGGER(&lt;/div&gt;&lt;div&gt;&amp;nbsp; &amp;nbsp; &amp;nbsp; &amp;nbsp; &amp;nbsp; &#39;INFO&#39;,&lt;/div&gt;&lt;div&gt;&amp;nbsp; &amp;nbsp; &amp;nbsp; &amp;nbsp; &amp;nbsp; {&lt;/div&gt;&lt;div&gt;&amp;nbsp; &amp;nbsp; &amp;nbsp; &amp;nbsp; &amp;nbsp; &amp;nbsp; pid: process.pid,&lt;/div&gt;&lt;div&gt;&amp;nbsp; &amp;nbsp; &amp;nbsp; &amp;nbsp; &amp;nbsp; &amp;nbsp; hostname: process.env.BACKEND_SERVER,&lt;/div&gt;&lt;div&gt;&amp;nbsp; &amp;nbsp; &amp;nbsp; &amp;nbsp; &amp;nbsp; &amp;nbsp; message: {&lt;/div&gt;&lt;div&gt;&amp;nbsp; &amp;nbsp; &amp;nbsp; &amp;nbsp; &amp;nbsp; &amp;nbsp; &amp;nbsp; ipRemota: publicIp(&lt;/div&gt;&lt;div&gt;&amp;nbsp; &amp;nbsp; &amp;nbsp; &amp;nbsp; &amp;nbsp; &amp;nbsp; &amp;nbsp; &amp;nbsp; req.header(&#39;x-forwarded-for&#39;) || req.connection.remoteAddress&lt;/div&gt;&lt;div&gt;&amp;nbsp; &amp;nbsp; &amp;nbsp; &amp;nbsp; &amp;nbsp; &amp;nbsp; &amp;nbsp; ),&lt;/div&gt;&lt;div&gt;&amp;nbsp; &amp;nbsp; &amp;nbsp; &amp;nbsp; &amp;nbsp; &amp;nbsp; &amp;nbsp; idCliente: userId,&lt;/div&gt;&lt;div&gt;&amp;nbsp; &amp;nbsp; &amp;nbsp; &amp;nbsp; &amp;nbsp; &amp;nbsp; &amp;nbsp; accion: &#39;Movimientos&#39;,&lt;/div&gt;&lt;div&gt;&amp;nbsp; &amp;nbsp; &amp;nbsp; &amp;nbsp; &amp;nbsp; &amp;nbsp; &amp;nbsp; estatus: &#39;Exitoso&#39;,&lt;/div&gt;&lt;div&gt;&amp;nbsp; &amp;nbsp; &amp;nbsp; &amp;nbsp; &amp;nbsp; &amp;nbsp; &amp;nbsp; recurso: `${config.protocol}//${config.host}/${config.path}:${config.port}`,&lt;/div&gt;&lt;div&gt;&amp;nbsp; &amp;nbsp; &amp;nbsp; &amp;nbsp; &amp;nbsp; &amp;nbsp; &amp;nbsp; fase: config.name === &#39;getMovements&#39; ? &#39;Consulta&#39; : &#39;Descarga&#39;,&lt;/div&gt;&lt;div&gt;&amp;nbsp; &amp;nbsp; &amp;nbsp; &amp;nbsp; &amp;nbsp; &amp;nbsp; &amp;nbsp; descripcion: responseJSON&lt;/div&gt;&lt;div&gt;&amp;nbsp; &amp;nbsp; &amp;nbsp; &amp;nbsp; &amp;nbsp; &amp;nbsp; }&lt;/div&gt;&lt;div&gt;&amp;nbsp; &amp;nbsp; &amp;nbsp; &amp;nbsp; &amp;nbsp; },&lt;/div&gt;&lt;div&gt;&amp;nbsp; &amp;nbsp; &amp;nbsp; &amp;nbsp; &amp;nbsp; LOGGER_MOVEMENTS&lt;/div&gt;&lt;div&gt;&amp;nbsp; &amp;nbsp; &amp;nbsp; &amp;nbsp; )&lt;/div&gt;&lt;/div&gt;" lucidchartObjectId="FheHkomjUrPZ" id="Yva_PYabZO9aCwLN1SX4-74">
          <mxCell style="html=1;whiteSpace=wrap;shape=process;whiteSpace=wrap;spacing=3;verticalAlign=top;strokeColor=#5e5e5e;strokeOpacity=100;fillOpacity=100;rounded=1;absoluteArcSize=1;arcSize=7.199999999999999;fillColor=#c7e8ac;strokeWidth=2;align=left;" vertex="1" zOrder="62" parent="1">
            <mxGeometry x="1045.5" y="4580" width="438" height="370" as="geometry" />
          </mxCell>
        </UserObject>
        <UserObject label="&lt;div style=&quot;text-align: left&quot;&gt;&lt;div&gt;LOGGER(&lt;/div&gt;&lt;div&gt;&amp;nbsp; &amp;nbsp; &amp;nbsp; &amp;nbsp; &amp;nbsp; &#39;ERROR&#39;,&lt;/div&gt;&lt;div&gt;&amp;nbsp; &amp;nbsp; &amp;nbsp; &amp;nbsp; &amp;nbsp; {&lt;/div&gt;&lt;div&gt;&amp;nbsp; &amp;nbsp; &amp;nbsp; &amp;nbsp; &amp;nbsp; &amp;nbsp; pid: process.pid,&lt;/div&gt;&lt;div&gt;&amp;nbsp; &amp;nbsp; &amp;nbsp; &amp;nbsp; &amp;nbsp; &amp;nbsp; hostname: process.env.BACKEND_SERVER,&lt;/div&gt;&lt;div&gt;&amp;nbsp; &amp;nbsp; &amp;nbsp; &amp;nbsp; &amp;nbsp; &amp;nbsp; message: {&lt;/div&gt;&lt;div&gt;&amp;nbsp; &amp;nbsp; &amp;nbsp; &amp;nbsp; &amp;nbsp; &amp;nbsp; &amp;nbsp; ipRemota: publicIp(&lt;/div&gt;&lt;div&gt;&amp;nbsp; &amp;nbsp; &amp;nbsp; &amp;nbsp; &amp;nbsp; &amp;nbsp; &amp;nbsp; &amp;nbsp; req.header(&#39;x-forwarded-for&#39;) || req.connection.remoteAddress&lt;/div&gt;&lt;div&gt;&amp;nbsp; &amp;nbsp; &amp;nbsp; &amp;nbsp; &amp;nbsp; &amp;nbsp; &amp;nbsp; ),&lt;/div&gt;&lt;div&gt;&amp;nbsp; &amp;nbsp; &amp;nbsp; &amp;nbsp; &amp;nbsp; &amp;nbsp; &amp;nbsp; idCliente: userId,&lt;/div&gt;&lt;div&gt;&amp;nbsp; &amp;nbsp; &amp;nbsp; &amp;nbsp; &amp;nbsp; &amp;nbsp; &amp;nbsp; accion: &#39;Movimientos&#39;,&lt;/div&gt;&lt;div&gt;&amp;nbsp; &amp;nbsp; &amp;nbsp; &amp;nbsp; &amp;nbsp; &amp;nbsp; &amp;nbsp; estatus: &#39;Error&#39;,&lt;/div&gt;&lt;div&gt;&amp;nbsp; &amp;nbsp; &amp;nbsp; &amp;nbsp; &amp;nbsp; &amp;nbsp; &amp;nbsp; recurso: `${config.protocol}//${config.host}/${config.path}:${config.port}`,&lt;/div&gt;&lt;div&gt;&amp;nbsp; &amp;nbsp; &amp;nbsp; &amp;nbsp; &amp;nbsp; &amp;nbsp; &amp;nbsp; fase: config.name === &#39;getMovements&#39; ? &#39;Consulta&#39; : &#39;Descarga&#39;,&lt;/div&gt;&lt;div&gt;&amp;nbsp; &amp;nbsp; &amp;nbsp; &amp;nbsp; &amp;nbsp; &amp;nbsp; &amp;nbsp; descripcion: err&lt;/div&gt;&lt;div&gt;&amp;nbsp; &amp;nbsp; &amp;nbsp; &amp;nbsp; &amp;nbsp; &amp;nbsp; }&lt;/div&gt;&lt;div&gt;&amp;nbsp; &amp;nbsp; &amp;nbsp; &amp;nbsp; &amp;nbsp; },&lt;/div&gt;&lt;div&gt;&amp;nbsp; &amp;nbsp; &amp;nbsp; &amp;nbsp; &amp;nbsp; LOGGER_MOVEMENTS&lt;/div&gt;&lt;div&gt;&amp;nbsp; &amp;nbsp; &amp;nbsp; &amp;nbsp; )&lt;/div&gt;&lt;/div&gt;" lucidchartObjectId="FheH_dg~gPG1" id="Yva_PYabZO9aCwLN1SX4-75">
          <mxCell style="html=1;whiteSpace=wrap;shape=process;whiteSpace=wrap;spacing=3;verticalAlign=top;strokeColor=#5e5e5e;strokeOpacity=100;fillOpacity=100;rounded=1;absoluteArcSize=1;arcSize=7.199999999999999;fillColor=#ffbbb1;strokeWidth=2;" vertex="1" zOrder="63" parent="1">
            <mxGeometry x="817.5" y="5285" width="436" height="335" as="geometry" />
          </mxCell>
        </UserObject>
        <UserObject label="" lucidchartObjectId="FheHOwsUk1Yf" id="Yva_PYabZO9aCwLN1SX4-76">
          <mxCell style="html=1;jettySize=18;whiteSpace=wrap;fontSize=10;fontColor=#333333;fontStyle=1;align=center;strokeColor=#5E5E5E;rounded=1;arcSize=12;edgeStyle=orthogonalEdgeStyle;startArrow=none;;endArrow=block;endFill=1;;exitX=0.5;exitY=0.9944314392214835;exitPerimeter=0;entryX=0.5;entryY=-0.0026532124928405378;entryPerimeter=0;" edge="1" parent="1" source="Yva_PYabZO9aCwLN1SX4-72" target="Yva_PYabZO9aCwLN1SX4-75">
            <mxGeometry width="100" height="100" relative="1" as="geometry">
              <Array as="points" />
            </mxGeometry>
          </mxCell>
        </UserObject>
        <mxCell id="Yva_PYabZO9aCwLN1SX4-77" value="No" style="text;html=1;resizable=0;labelBackgroundColor=#ffffff;align=center;verticalAlign=middle;fontStyle=1;fontColor=#333333;;fontSize=10.666666666666666;" vertex="1" parent="Yva_PYabZO9aCwLN1SX4-76">
          <mxGeometry relative="1" as="geometry" />
        </mxCell>
        <UserObject label="&lt;span style=&quot;line-height: 107% ; font-family: &amp;#34;segoe ui semilight&amp;#34; , sans-serif&quot;&gt;&lt;font style=&quot;font-size: 12px&quot;&gt;savePromotion&lt;/font&gt;&lt;/span&gt;" lucidchartObjectId="NafHmFh6Zc9_" id="Yva_PYabZO9aCwLN1SX4-78">
          <mxCell style="html=1;whiteSpace=wrap;shape=hexagon;perimeter=hexagonPerimeter2;whiteSpace=wrap;fontSize=11;fontColor=#000000;spacing=3;strokeColor=#5e5e5e;strokeOpacity=100;rounded=1;absoluteArcSize=1;arcSize=7.199999999999999;strokeWidth=2;" vertex="1" zOrder="83" parent="1">
            <mxGeometry x="543.5" y="4781" width="96" height="72" as="geometry" />
          </mxCell>
        </UserObject>
        <UserObject label="" lucidchartObjectId="EZfH.cGEjq3c" id="Yva_PYabZO9aCwLN1SX4-79">
          <mxCell style="html=1;jettySize=18;whiteSpace=wrap;fontSize=12;fontColor=#333333;fontStyle=1;align=center;strokeColor=#5E5E5E;rounded=1;arcSize=12;edgeStyle=orthogonalEdgeStyle;startArrow=none;;endArrow=block;endFill=1;;exitX=0.375;exitY=0;entryX=0.5387500000000343;entryY=1.0125000000000004;entryPerimeter=0;exitDx=0;exitDy=0;" edge="1" parent="1" source="Yva_PYabZO9aCwLN1SX4-98" target="Yva_PYabZO9aCwLN1SX4-78">
            <mxGeometry width="100" height="100" relative="1" as="geometry">
              <Array as="points" />
              <mxPoint x="594.9999999999964" y="4928.437704255225" as="sourcePoint" />
            </mxGeometry>
          </mxCell>
        </UserObject>
        <mxCell id="Yva_PYabZO9aCwLN1SX4-80" value="&lt;span style=&quot;font-size: 10.0pt ; line-height: 107% ; font-family: &amp;#34;leelawadee ui&amp;#34; , sans-serif&quot;&gt;api/&lt;/span&gt;&lt;span style=&quot;font-size: 11.0pt ; line-height: 107% ; font-family: &amp;#34;segoe ui semilight&amp;#34; , sans-serif&quot;&gt;savePromotion&lt;/span&gt;" style="text;html=1;resizable=0;labelBackgroundColor=#ffffff;align=center;verticalAlign=middle;fontStyle=1;fontColor=#333333;;fontSize=12;" vertex="1" parent="Yva_PYabZO9aCwLN1SX4-79">
          <mxGeometry relative="1" as="geometry" />
        </mxCell>
        <UserObject label="" lucidchartObjectId="HZfHUyaufXkK" id="Yva_PYabZO9aCwLN1SX4-81">
          <mxCell style="html=1;jettySize=18;whiteSpace=wrap;fontSize=12;fontColor=#333333;fontStyle=1;align=center;strokeColor=#5E5E5E;rounded=1;arcSize=12;edgeStyle=orthogonalEdgeStyle;startArrow=none;;endArrow=block;endFill=1;;exitX=0.5;exitY=1;entryX=0.5;entryY=-0.012500000000000065;entryPerimeter=0;exitDx=0;exitDy=0;" edge="1" parent="1" source="Yva_PYabZO9aCwLN1SX4-98" target="Yva_PYabZO9aCwLN1SX4-66">
            <mxGeometry width="100" height="100" relative="1" as="geometry">
              <Array as="points" />
              <mxPoint x="595.0000000000002" y="5008.562295744775" as="sourcePoint" />
            </mxGeometry>
          </mxCell>
        </UserObject>
        <mxCell id="Yva_PYabZO9aCwLN1SX4-82" value="&lt;span lang=&quot;ES-MX&quot; style=&quot;font-size: 10.0pt ; line-height: 107% ; font-family: &amp;#34;leelawadee ui&amp;#34; , sans-serif&quot;&gt;api/getPromotions&lt;/span&gt;" style="text;html=1;resizable=0;labelBackgroundColor=#ffffff;align=center;verticalAlign=middle;fontStyle=1;fontColor=#333333;;fontSize=12;" vertex="1" parent="Yva_PYabZO9aCwLN1SX4-81">
          <mxGeometry relative="1" as="geometry" />
        </mxCell>
        <mxCell id="Yva_PYabZO9aCwLN1SX4-83" value="" style="group;dropTarget=0;" vertex="1" parent="1">
          <mxGeometry x="479" y="4220" width="277" height="530" as="geometry" />
        </mxCell>
        <UserObject label="&lt;div style=&quot;text-align: left&quot;&gt;&lt;span style=&quot;color: rgb(201 , 45 , 57) ; font-weight: bold&quot;&gt;&lt;font style=&quot;font-size: 12px&quot;&gt;Header&lt;/font&gt;&lt;/span&gt;&lt;span style=&quot;font-size: 9px ; color: #000000&quot;&gt;&lt;br&gt;&lt;/span&gt;&lt;/div&gt;&lt;div style=&quot;text-align: left&quot;&gt;&lt;div&gt;&#39;Content-Type&#39;: &#39;application/json&#39;&amp;nbsp;&lt;/div&gt;&lt;div&gt;&amp;nbsp;Authorization: Basic ZW1vcmFsZXNAaW50ZXJ3YXJlLmNvbS5te&lt;/div&gt;&lt;div&gt;DpFbW1hbnVlbA==&lt;/div&gt;&lt;div&gt;&lt;br&gt;&lt;/div&gt;&lt;/div&gt;&lt;div style=&quot;text-align: left&quot;&gt;&lt;/div&gt;" lucidchartObjectId="b2fHpSifme5C" id="Yva_PYabZO9aCwLN1SX4-84">
          <mxCell style="html=1;whiteSpace=wrap;;whiteSpace=wrap;spacing=3;verticalAlign=top;strokeColor=#5e5e5e;strokeOpacity=100;fillOpacity=100;rounded=1;absoluteArcSize=1;arcSize=7.199999999999999;fillColor=#e5e5e5;strokeWidth=2;" vertex="1" zOrder="87" parent="Yva_PYabZO9aCwLN1SX4-83">
            <mxGeometry y="56.059322033898326" width="277" height="110.31027884089669" as="geometry" />
          </mxCell>
        </UserObject>
        <UserObject label="&lt;div style=&quot;text-align: left&quot;&gt;&lt;span style=&quot;font-size: 9px ; color: #c92d39 ; font-weight: bold&quot;&gt;Payload&lt;/span&gt;&lt;span style=&quot;font-size: 9px ; color: #000000&quot;&gt;&lt;br&gt;&lt;/span&gt;&lt;/div&gt;&lt;div style=&quot;text-align: left&quot;&gt;&lt;div&gt;&lt;div&gt;{&lt;/div&gt;&lt;div&gt;&amp;nbsp; &amp;nbsp; &quot;query&quot;: {&lt;/div&gt;&lt;div&gt;&amp;nbsp; &amp;nbsp; &amp;nbsp; &amp;nbsp; &quot;bool&quot;: {&lt;/div&gt;&lt;div&gt;&amp;nbsp; &amp;nbsp; &amp;nbsp; &amp;nbsp; &amp;nbsp; &amp;nbsp; &quot;must&quot;: [&lt;/div&gt;&lt;div&gt;&amp;nbsp; &amp;nbsp; &amp;nbsp; &amp;nbsp; &amp;nbsp; &amp;nbsp; &amp;nbsp; &amp;nbsp; {&lt;/div&gt;&lt;div&gt;&amp;nbsp; &amp;nbsp; &amp;nbsp; &amp;nbsp; &amp;nbsp; &amp;nbsp; &amp;nbsp; &amp;nbsp; &amp;nbsp; &amp;nbsp; &quot;match&quot;: {&lt;/div&gt;&lt;div&gt;&amp;nbsp; &amp;nbsp; &amp;nbsp; &amp;nbsp; &amp;nbsp; &amp;nbsp; &amp;nbsp; &amp;nbsp; &amp;nbsp; &amp;nbsp; &amp;nbsp; &amp;nbsp; &quot;activo&quot;: true&lt;/div&gt;&lt;div&gt;&amp;nbsp; &amp;nbsp; &amp;nbsp; &amp;nbsp; &amp;nbsp; &amp;nbsp; &amp;nbsp; &amp;nbsp; &amp;nbsp; &amp;nbsp; }&lt;/div&gt;&lt;div&gt;&amp;nbsp; &amp;nbsp; &amp;nbsp; &amp;nbsp; &amp;nbsp; &amp;nbsp; &amp;nbsp; &amp;nbsp; },&lt;/div&gt;&lt;div&gt;&amp;nbsp; &amp;nbsp; &amp;nbsp; &amp;nbsp; &amp;nbsp; &amp;nbsp; &amp;nbsp; &amp;nbsp; {&lt;/div&gt;&lt;div&gt;&amp;nbsp; &amp;nbsp; &amp;nbsp; &amp;nbsp; &amp;nbsp; &amp;nbsp; &amp;nbsp; &amp;nbsp; &amp;nbsp; &amp;nbsp; &quot;match&quot;: {&lt;/div&gt;&lt;div&gt;&amp;nbsp; &amp;nbsp; &amp;nbsp; &amp;nbsp; &amp;nbsp; &amp;nbsp; &amp;nbsp; &amp;nbsp; &amp;nbsp; &amp;nbsp; &amp;nbsp; &amp;nbsp; &quot;id_campania&quot;: 2001&lt;/div&gt;&lt;div&gt;&amp;nbsp; &amp;nbsp; &amp;nbsp; &amp;nbsp; &amp;nbsp; &amp;nbsp; &amp;nbsp; &amp;nbsp; &amp;nbsp; &amp;nbsp; }&lt;/div&gt;&lt;div&gt;&amp;nbsp; &amp;nbsp; &amp;nbsp; &amp;nbsp; &amp;nbsp; &amp;nbsp; &amp;nbsp; &amp;nbsp; },&lt;/div&gt;&lt;div&gt;&amp;nbsp; &amp;nbsp; &amp;nbsp; &amp;nbsp; &amp;nbsp; &amp;nbsp; &amp;nbsp; &amp;nbsp; {&lt;/div&gt;&lt;div&gt;&amp;nbsp; &amp;nbsp; &amp;nbsp; &amp;nbsp; &amp;nbsp; &amp;nbsp; &amp;nbsp; &amp;nbsp; &amp;nbsp; &amp;nbsp; &quot;match&quot;: {&lt;/div&gt;&lt;div&gt;&amp;nbsp; &amp;nbsp; &amp;nbsp; &amp;nbsp; &amp;nbsp; &amp;nbsp; &amp;nbsp; &amp;nbsp; &amp;nbsp; &amp;nbsp; &amp;nbsp; &amp;nbsp; &quot;id_cliente&quot;: 1802969582&lt;/div&gt;&lt;div&gt;&amp;nbsp; &amp;nbsp; &amp;nbsp; &amp;nbsp; &amp;nbsp; &amp;nbsp; &amp;nbsp; &amp;nbsp; &amp;nbsp; &amp;nbsp; }&lt;/div&gt;&lt;div&gt;&amp;nbsp; &amp;nbsp; &amp;nbsp; &amp;nbsp; &amp;nbsp; &amp;nbsp; &amp;nbsp; &amp;nbsp; }&lt;/div&gt;&lt;div&gt;&amp;nbsp; &amp;nbsp; &amp;nbsp; &amp;nbsp; &amp;nbsp; &amp;nbsp; ]&lt;/div&gt;&lt;div&gt;&amp;nbsp; &amp;nbsp; &amp;nbsp; &amp;nbsp; }&lt;/div&gt;&lt;div&gt;&amp;nbsp; &amp;nbsp; }&lt;/div&gt;&lt;div&gt;}&lt;/div&gt;&lt;/div&gt;&lt;div&gt;&lt;br&gt;&lt;/div&gt;&lt;div&gt;&lt;br&gt;&lt;/div&gt;&lt;/div&gt;&lt;div style=&quot;text-align: left&quot;&gt;&lt;/div&gt;" lucidchartObjectId="b2fHGq9EwkId" id="Yva_PYabZO9aCwLN1SX4-85">
          <mxCell style="html=1;whiteSpace=wrap;;whiteSpace=wrap;spacing=3;verticalAlign=top;strokeColor=#5e5e5e;strokeOpacity=100;fillOpacity=100;rounded=1;absoluteArcSize=1;arcSize=7.199999999999999;fillColor=#e5e5e5;strokeWidth=2;" vertex="1" zOrder="88" parent="Yva_PYabZO9aCwLN1SX4-83">
            <mxGeometry y="157.8" width="277" height="372.2" as="geometry" />
          </mxCell>
        </UserObject>
        <UserObject label="&lt;div style=&quot;text-align: left&quot;&gt;&lt;span style=&quot;font-size: 10px ; color: #c92d39 ; font-weight: bold&quot;&gt;URL&lt;/span&gt;&lt;span style=&quot;font-size: 10px ; color: #000000&quot;&gt;:&amp;nbsp;&lt;/span&gt;&lt;/div&gt;&lt;div style=&quot;text-align: left&quot;&gt;&lt;span&gt;https://417aa3f7200b4e4ab27e35032757cadd.us-east-1.aws.found.io:9243/&lt;/span&gt;&lt;/div&gt;&lt;div style=&quot;text-align: left&quot;&gt;&lt;span&gt;mm_promociones_dev/_search&lt;/span&gt;&lt;/div&gt;&lt;div&gt;&lt;br&gt;&lt;/div&gt;" lucidchartObjectId="b2fHP6a50O9K" id="Yva_PYabZO9aCwLN1SX4-86">
          <mxCell style="html=1;whiteSpace=wrap;;whiteSpace=wrap;spacing=3;verticalAlign=top;strokeColor=#5e5e5e;strokeOpacity=100;fillOpacity=100;rounded=1;absoluteArcSize=1;arcSize=7.199999999999999;fillColor=#e5e5e5;strokeWidth=2;" vertex="1" zOrder="89" parent="Yva_PYabZO9aCwLN1SX4-83">
            <mxGeometry y="-10" width="277" height="70" as="geometry" />
          </mxCell>
        </UserObject>
        <UserObject label="" lucidchartObjectId="a-fHOj-8eRLB" id="Yva_PYabZO9aCwLN1SX4-87">
          <mxCell style="html=1;jettySize=18;whiteSpace=wrap;fontSize=11;strokeColor=#5E5E5E;rounded=1;arcSize=12;edgeStyle=orthogonalEdgeStyle;startArrow=none;;endArrow=block;endFill=1;;exitX=0.9987516805433211;exitY=0.5000000000000002;exitPerimeter=0;entryX=0.00608572220582049;entryY=0.49999999999999983;entryPerimeter=0;" edge="1" parent="1" source="Yva_PYabZO9aCwLN1SX4-66" target="Yva_PYabZO9aCwLN1SX4-72">
            <mxGeometry width="100" height="100" relative="1" as="geometry">
              <Array as="points" />
            </mxGeometry>
          </mxCell>
        </UserObject>
        <UserObject label="" lucidchartObjectId="f-fHMxQSjTW5" id="Yva_PYabZO9aCwLN1SX4-88">
          <mxCell style="html=1;jettySize=18;whiteSpace=wrap;fontSize=11;strokeColor=#5E5E5E;rounded=1;arcSize=12;edgeStyle=orthogonalEdgeStyle;startArrow=none;;endArrow=block;endFill=1;;exitX=0.9987516805433211;exitY=0.5000000000000002;exitPerimeter=0;entryX=0.5;entryY=0.005568560778516039;entryPerimeter=0;" edge="1" parent="1" source="Yva_PYabZO9aCwLN1SX4-78" target="Yva_PYabZO9aCwLN1SX4-72">
            <mxGeometry width="100" height="100" relative="1" as="geometry">
              <Array as="points" />
            </mxGeometry>
          </mxCell>
        </UserObject>
        <UserObject label="" lucidchartObjectId="D-fH3PVmAfwG" id="Yva_PYabZO9aCwLN1SX4-89">
          <mxCell style="html=1;jettySize=18;whiteSpace=wrap;fontSize=10;fontColor=#333333;fontStyle=1;align=center;strokeColor=#5E5E5E;rounded=1;arcSize=12;edgeStyle=orthogonalEdgeStyle;startArrow=none;;endArrow=block;endFill=1;;exitX=0.9939142777941795;exitY=0.49999999999999983;exitPerimeter=0;entryX=0.5000000000000002;entryY=1.0028019919053555;entryPerimeter=0;" edge="1" parent="1" source="Yva_PYabZO9aCwLN1SX4-72" target="Yva_PYabZO9aCwLN1SX4-74">
            <mxGeometry width="100" height="100" relative="1" as="geometry">
              <Array as="points" />
            </mxGeometry>
          </mxCell>
        </UserObject>
        <mxCell id="Yva_PYabZO9aCwLN1SX4-90" value="Sí" style="text;html=1;resizable=0;labelBackgroundColor=#ffffff;align=center;verticalAlign=middle;fontStyle=1;fontColor=#333333;;fontSize=10.666666666666666;" vertex="1" parent="Yva_PYabZO9aCwLN1SX4-89">
          <mxGeometry relative="1" as="geometry" />
        </mxCell>
        <UserObject label="&lt;div&gt;&lt;div&gt;LOGGER(&lt;/div&gt;&lt;div&gt;&amp;nbsp; &amp;nbsp; &amp;nbsp; &amp;nbsp; &#39;ERROR&#39;,&lt;/div&gt;&lt;div&gt;&amp;nbsp; &amp;nbsp; &amp;nbsp; &amp;nbsp; {&lt;/div&gt;&lt;div&gt;&amp;nbsp; &amp;nbsp; &amp;nbsp; &amp;nbsp; &amp;nbsp; pid: process.pid,&lt;/div&gt;&lt;div&gt;&amp;nbsp; &amp;nbsp; &amp;nbsp; &amp;nbsp; &amp;nbsp; hostname: process.env.BACKEND_SERVER,&lt;/div&gt;&lt;div&gt;&amp;nbsp; &amp;nbsp; &amp;nbsp; &amp;nbsp; &amp;nbsp; message: {&lt;/div&gt;&lt;div&gt;&amp;nbsp; &amp;nbsp; &amp;nbsp; &amp;nbsp; &amp;nbsp; &amp;nbsp; ipRemota: publicIp(&lt;/div&gt;&lt;div&gt;&amp;nbsp; &amp;nbsp; &amp;nbsp; &amp;nbsp; &amp;nbsp; &amp;nbsp; &amp;nbsp; req.header(&#39;x-forwarded-for&#39;) || req.connection.remoteAddress&lt;/div&gt;&lt;div&gt;&amp;nbsp; &amp;nbsp; &amp;nbsp; &amp;nbsp; &amp;nbsp; &amp;nbsp; ),&lt;/div&gt;&lt;div&gt;&amp;nbsp; &amp;nbsp; &amp;nbsp; &amp;nbsp; &amp;nbsp; &amp;nbsp; accion: &#39;Promociones&#39;,&lt;/div&gt;&lt;div&gt;&amp;nbsp; &amp;nbsp; &amp;nbsp; &amp;nbsp; &amp;nbsp; &amp;nbsp; estatus: &#39;Error&#39;,&lt;/div&gt;&lt;div&gt;&amp;nbsp; &amp;nbsp; &amp;nbsp; &amp;nbsp; &amp;nbsp; &amp;nbsp; recurso: `${config.port}//${config.host}/${config.host}:${config.port}`,&lt;/div&gt;&lt;div&gt;&amp;nbsp; &amp;nbsp; &amp;nbsp; &amp;nbsp; &amp;nbsp; &amp;nbsp; fase: config.name,&lt;/div&gt;&lt;div&gt;&amp;nbsp; &amp;nbsp; &amp;nbsp; &amp;nbsp; &amp;nbsp; &amp;nbsp; descripcion: &#39;ValidationError Need: idUser, token &#39;&lt;/div&gt;&lt;div&gt;&amp;nbsp; &amp;nbsp; &amp;nbsp; &amp;nbsp; &amp;nbsp; }&lt;/div&gt;&lt;div&gt;&amp;nbsp; &amp;nbsp; &amp;nbsp; &amp;nbsp; },&lt;/div&gt;&lt;div&gt;&amp;nbsp; &amp;nbsp; &amp;nbsp; &amp;nbsp; LOGGER_PROMOTIONS&lt;/div&gt;&lt;div&gt;&amp;nbsp; &amp;nbsp; &amp;nbsp; )&lt;/div&gt;&lt;div&gt;&amp;nbsp; &amp;nbsp; &amp;nbsp; return res.status(500).send({&lt;/div&gt;&lt;div&gt;&amp;nbsp; &amp;nbsp; &amp;nbsp; &amp;nbsp; codigoError: &#39;500&#39;,&lt;/div&gt;&lt;div&gt;&amp;nbsp; &amp;nbsp; &amp;nbsp; &amp;nbsp; descripcionError: &#39;ValidationError Need:&amp;nbsp; idUser, token &#39;&lt;/div&gt;&lt;div&gt;&amp;nbsp; &amp;nbsp; &amp;nbsp; })&lt;/div&gt;&lt;/div&gt;" lucidchartObjectId="FheHXMUjOUy~" id="Yva_PYabZO9aCwLN1SX4-91">
          <mxCell style="html=1;whiteSpace=wrap;shape=process;whiteSpace=wrap;spacing=3;verticalAlign=middle;strokeColor=#5e5e5e;strokeOpacity=100;fillOpacity=100;rounded=1;absoluteArcSize=1;arcSize=7.199999999999999;fillColor=#ffbbb1;strokeWidth=2;align=left;" vertex="1" zOrder="51" parent="1">
            <mxGeometry x="90" y="5140" width="400" height="430" as="geometry" />
          </mxCell>
        </UserObject>
        <mxCell id="Yva_PYabZO9aCwLN1SX4-92" value="" style="group" vertex="1" connectable="0" parent="1">
          <mxGeometry x="520.5" y="5240" width="237" height="467" as="geometry" />
        </mxCell>
        <mxCell id="Yva_PYabZO9aCwLN1SX4-93" value="" style="group;dropTarget=0;" vertex="1" parent="Yva_PYabZO9aCwLN1SX4-92">
          <mxGeometry width="237" height="467" as="geometry" />
        </mxCell>
        <UserObject label="&lt;div style=&quot;text-align: left&quot;&gt;&lt;span style=&quot;font-size: 10px ; color: #c92d39 ; font-weight: bold&quot;&gt;Header&lt;/span&gt;&lt;span style=&quot;font-size: 10px ; color: #000000&quot;&gt;&lt;br&gt;&lt;/span&gt;&lt;/div&gt;&lt;div style=&quot;text-align: left&quot;&gt;&lt;span style=&quot;font-size: 10px ; color: #000000&quot;&gt;&#39;&lt;/span&gt;&lt;span&gt;&amp;nbsp; &#39;Content-Type&#39;: &#39;application/json&#39;&amp;nbsp;&lt;/span&gt;&lt;/div&gt;&lt;div style=&quot;text-align: left&quot;&gt;&amp;nbsp;Authorization: Bearer izFoJ6hiKKJ8eZJYorjFRqpD1JxxZFZV91&lt;/div&gt;&lt;div style=&quot;text-align: left&quot;&gt;remCZLH2ScsExb8cj6Fm&lt;/div&gt;&lt;div style=&quot;text-align: left&quot;&gt;&amp;nbsp;idConsumidor: 25&lt;/div&gt;&lt;div style=&quot;text-align: left&quot;&gt;&amp;nbsp;idDestino: 100&lt;/div&gt;&lt;div style=&quot;text-align: left&quot;&gt;&amp;nbsp;usuario: gtqxhthfafmldtrmlt@niwghx.online&lt;/div&gt;&lt;div&gt;&lt;br&gt;&lt;/div&gt;&lt;div style=&quot;text-align: left&quot;&gt;&lt;span style=&quot;font-size: 10px ; color: #000000&quot;&gt;&lt;br&gt;&lt;/span&gt;&lt;/div&gt;&lt;div style=&quot;text-align: left&quot;&gt;&lt;span style=&quot;font-size: 10px ; color: #000000&quot;&gt;&lt;br&gt;&lt;/span&gt;&lt;/div&gt;&lt;div style=&quot;text-align: left&quot;&gt;&lt;/div&gt;" lucidchartObjectId="L7fHxwdAuD0y" id="Yva_PYabZO9aCwLN1SX4-94">
          <mxCell style="html=1;whiteSpace=wrap;;whiteSpace=wrap;spacing=3;verticalAlign=top;strokeColor=#5e5e5e;strokeOpacity=100;fillOpacity=100;rounded=1;absoluteArcSize=1;arcSize=7.199999999999999;fillColor=#e5e5e5;strokeWidth=2;" vertex="1" zOrder="91" parent="Yva_PYabZO9aCwLN1SX4-93">
            <mxGeometry y="70.0007392996109" width="237" height="133.5583657587549" as="geometry" />
          </mxCell>
        </UserObject>
        <UserObject label="&lt;div style=&quot;text-align: left&quot;&gt;&lt;span style=&quot;font-size: 10px ; color: #c92d39 ; font-weight: bold&quot;&gt;Payload&lt;/span&gt;&lt;span style=&quot;font-size: 10px ; color: #000000&quot;&gt;&lt;br&gt;&lt;/span&gt;&lt;/div&gt;&lt;div&gt;&lt;div style=&quot;text-align: left&quot;&gt;{&lt;/div&gt;&lt;div style=&quot;text-align: left&quot;&gt;&amp;nbsp; &amp;nbsp; &quot;partidas&quot;: {&lt;/div&gt;&lt;div style=&quot;text-align: left&quot;&gt;&amp;nbsp; &amp;nbsp; &amp;nbsp; &quot;partida&quot;: [&lt;/div&gt;&lt;div style=&quot;text-align: left&quot;&gt;&amp;nbsp; &amp;nbsp; &amp;nbsp; &amp;nbsp; &amp;nbsp; &amp;nbsp; {&lt;/div&gt;&lt;div style=&quot;text-align: left&quot;&gt;&amp;nbsp; &amp;nbsp; &amp;nbsp; &amp;nbsp; &amp;nbsp; &quot;prenda&quot;: {&lt;/div&gt;&lt;div style=&quot;text-align: left&quot;&gt;&amp;nbsp; &amp;nbsp; &amp;nbsp; &amp;nbsp; &amp;nbsp; &amp;nbsp; &quot;folio&quot;:&quot;&quot;&lt;/div&gt;&lt;div style=&quot;text-align: left&quot;&gt;&amp;nbsp; &amp;nbsp; &amp;nbsp; &amp;nbsp; &amp;nbsp; &amp;nbsp; &amp;nbsp; &amp;nbsp; }&lt;/div&gt;&lt;div style=&quot;text-align: left&quot;&gt;&amp;nbsp; &amp;nbsp; &amp;nbsp; &amp;nbsp; &amp;nbsp; &amp;nbsp; }&lt;/div&gt;&lt;div style=&quot;text-align: left&quot;&gt;&amp;nbsp; &amp;nbsp; &amp;nbsp; &amp;nbsp; ]&lt;/div&gt;&lt;div style=&quot;text-align: left&quot;&gt;&amp;nbsp; &amp;nbsp; },&lt;/div&gt;&lt;div style=&quot;text-align: left&quot;&gt;&amp;nbsp; &amp;nbsp; &quot;transaccion&quot;: {&lt;/div&gt;&lt;div style=&quot;text-align: left&quot;&gt;&amp;nbsp; &amp;nbsp; &amp;nbsp; &quot;idTransaccion&quot;:&quot;&quot;,&lt;/div&gt;&lt;div style=&quot;text-align: left&quot;&gt;&amp;nbsp; &amp;nbsp; &amp;nbsp; &quot;idOperacion&quot;:&quot;&quot;&lt;/div&gt;&lt;div style=&quot;text-align: left&quot;&gt;&amp;nbsp; &amp;nbsp; }&lt;/div&gt;&lt;div style=&quot;text-align: left&quot;&gt;}&lt;/div&gt;&lt;div style=&quot;text-align: left&quot;&gt;&lt;br&gt;&lt;/div&gt;&lt;/div&gt;&lt;div style=&quot;text-align: left&quot;&gt;&lt;/div&gt;" lucidchartObjectId="L7fHcG3YZx9E" id="Yva_PYabZO9aCwLN1SX4-95">
          <mxCell style="html=1;whiteSpace=wrap;;whiteSpace=wrap;spacing=3;verticalAlign=top;strokeColor=#5e5e5e;strokeOpacity=100;fillOpacity=100;rounded=1;absoluteArcSize=1;arcSize=7.199999999999999;fillColor=#e5e5e5;strokeWidth=2;" vertex="1" zOrder="92" parent="Yva_PYabZO9aCwLN1SX4-93">
            <mxGeometry y="189.8924384787472" width="237" height="259.3469351230425" as="geometry" />
          </mxCell>
        </UserObject>
        <UserObject label="&lt;div style=&quot;text-align: left&quot;&gt;&lt;span style=&quot;font-size: 10px ; color: #c92d39 ; font-weight: bold&quot;&gt;URL&lt;/span&gt;&lt;span style=&quot;font-size: 10px ; color: #000000&quot;&gt;:&amp;nbsp;&lt;/span&gt;&lt;/div&gt;&lt;div style=&quot;text-align: left&quot;&gt;&lt;span style=&quot;font-size: 11px&quot;&gt;https://iamdr.montepiedad.com.mx:4444/NMP/&lt;/span&gt;&lt;/div&gt;&lt;div style=&quot;text-align: left&quot;&gt;&lt;span style=&quot;font-size: 11px&quot;&gt;OperacionPrendaria/OperacionesEnLinea/&lt;/span&gt;&lt;/div&gt;&lt;div style=&quot;text-align: left&quot;&gt;&lt;span style=&quot;font-size: 11px&quot;&gt;Transaccion.svc/v1/Recibos/Detalle&lt;/span&gt;&lt;/div&gt;" lucidchartObjectId="L7fHMCa3U-JB" id="Yva_PYabZO9aCwLN1SX4-96">
          <mxCell style="html=1;whiteSpace=wrap;;whiteSpace=wrap;spacing=3;verticalAlign=top;strokeColor=#5e5e5e;strokeOpacity=100;fillOpacity=100;rounded=1;absoluteArcSize=1;arcSize=7.199999999999999;fillColor=#e5e5e5;strokeWidth=2;" vertex="1" zOrder="93" parent="Yva_PYabZO9aCwLN1SX4-92">
            <mxGeometry width="237" height="70" as="geometry" />
          </mxCell>
        </UserObject>
        <UserObject label="&lt;font style=&quot;font-size: 12px&quot;&gt;Response:&amp;nbsp;&lt;br&gt;&quot;Se necesita los folios y tansaccion para poder obtener la respuesta correcta&quot;&lt;br&gt;&lt;/font&gt;" lucidchartObjectId="FheHwJTHAw6u" id="Yva_PYabZO9aCwLN1SX4-97">
          <mxCell style="html=1;whiteSpace=wrap;;whiteSpace=wrap;spacing=3;verticalAlign=top;strokeColor=#5e5e5e;strokeOpacity=100;rounded=1;absoluteArcSize=1;arcSize=7.199999999999999;strokeWidth=2;" vertex="1" zOrder="69" parent="1">
            <mxGeometry x="1610" y="4889" width="240" height="71" as="geometry" />
          </mxCell>
        </UserObject>
        <UserObject label="&lt;font style=&quot;font-size: 12px&quot;&gt;Lamada a endpoint&lt;/font&gt;" lucidchartObjectId="FheHEQBCdsh4" id="Yva_PYabZO9aCwLN1SX4-98">
          <mxCell style="html=1;whiteSpace=wrap;shape=hexagon;perimeter=hexagonPerimeter2;whiteSpace=wrap;fontSize=11;fontColor=#000000;spacing=3;strokeColor=#5e5e5e;strokeOpacity=100;rounded=1;absoluteArcSize=1;arcSize=7.199999999999999;strokeWidth=2;size=0.20833333333333334;" vertex="1" zOrder="47" parent="1">
            <mxGeometry x="560" y="4937" width="96" height="72" as="geometry" />
          </mxCell>
        </UserObject>
        <UserObject label="&lt;span style=&quot;line-height: 107% ; font-family: &amp;#34;segoe ui semilight&amp;#34; , sans-serif&quot;&gt;&lt;font style=&quot;font-size: 12px&quot;&gt;deletePromotion&lt;/font&gt;&lt;/span&gt;" lucidchartObjectId="NafHmFh6Zc9_" id="Yva_PYabZO9aCwLN1SX4-99">
          <mxCell style="html=1;whiteSpace=wrap;shape=hexagon;perimeter=hexagonPerimeter2;whiteSpace=wrap;fontSize=11;fontColor=#000000;spacing=3;strokeColor=#5e5e5e;strokeOpacity=100;rounded=1;absoluteArcSize=1;arcSize=7.199999999999999;strokeWidth=2;" vertex="1" zOrder="83" parent="1">
            <mxGeometry x="817.5" y="4937" width="96" height="72" as="geometry" />
          </mxCell>
        </UserObject>
      </root>
    </mxGraphModel>
  </diagram>
</mxfile>
